<?xml version="1.0" standalone="no"?>
<!DOCTYPE svg PUBLIC "-//W3C//DTD SVG 1.1//EN" "http://www.w3.org/Graphics/SVG/1.1/DTD/svg11.dtd" >
<!--
2013-9-30: Created.
-->
<svg>
<metadata>
Created by iconfont
</metadata>
<defs>

<font id="iconfont" horiz-adv-x="1024" >
  <font-face
    font-family="iconfont"
    font-weight="500"
    font-stretch="normal"
    units-per-em="1024"
    ascent="896"
    descent="-128"
  />
    <missing-glyph />
    
    <glyph glyph-name="yonghu1" unicode="&#58912;" d="M437.968 735.488c123.584 0 223.744-98.512 223.744-220.048 0-121.552-100.176-220.096-223.744-220.096-123.584 0-223.744 98.544-223.744 220.064C214.224 636.976 314.384 735.488 437.968 735.488zM437.968 735.488c123.584 0 223.744-98.512 223.744-220.048 0-121.552-100.176-220.096-223.744-220.096-123.584 0-223.744 98.544-223.744 220.064C214.224 636.976 314.384 735.488 437.968 735.488zM354.048 221.984l186.464 0c159.616 0 289.008-127.28 289.008-284.272l0-18.336c0-61.84-129.392-64.208-289.008-64.208L354.048-144.832c-159.616 0-289.008 0.032-289.008 64.208l0 18.336C65.04 94.704 194.448 221.984 354.048 221.984zM748.432 642.816l208.496 0c6.384 0 11.616-5.136 11.616-11.584l0-69.488c0-6.384-5.184-11.6-11.616-11.6L748.432 550.144c-6.384 0-11.568 5.216-11.568 11.6l0 69.488C736.88 637.68 742.048 642.816 748.432 642.816zM817.936 712.336l69.504 0c6.4 0 11.6-5.168 11.6-11.6l0-208.496c0-6.384-5.184-11.6-11.6-11.6l-69.504 0c-6.4 0-11.568 5.216-11.568 11.6L806.368 700.736C806.368 707.168 811.536 712.336 817.936 712.336z"  horiz-adv-x="1024" />

    
    <glyph glyph-name="55" unicode="&#58942;" d="M512 747C265.146 747 65 546.854 65 300c0-246.854 200.146-447 447-447 246.854 0 447 200.146 447 447C959 546.854 758.854 747 512 747zM512-117.2C281.952-117.2 94.8 69.952 94.8 300S281.952 717.2 512 717.2 929.2 530.048 929.2 300 742.048-117.2 512-117.2zM683.35 491.743 511.971 320.364 340.65 491.743 320.25 471.313 491.6 299.978 320.264 128.658 340.65 108.271 511.971 279.592 683.35 108.258 703.736 128.658 532.414 299.978 703.75 471.357Z"  horiz-adv-x="1024" />

    
    <glyph glyph-name="duigou" unicode="&#58973;" d="M364.037087 59.812503c-5.176906 0-10.354835 1.954515-14.334473 5.872754l-1.402953 1.381463c-0.103354 0.102331-0.205685 0.204661-0.306992 0.309038L66.585511 356.560044c-7.869225 8.087189-7.693216 21.022803 0.393973 28.892027 8.086166 7.867178 21.021779 7.692193 28.891004-0.393973l268.255627-275.66948 565.584406 571.97086c7.934716 8.023744 20.87033 8.096399 28.893051 0.162706 8.024767-7.933693 8.096399-20.87033 0.162706-28.894074L378.565988 65.877639C374.569978 61.837626 369.304044 59.812503 364.037087 59.812503z"  horiz-adv-x="1024" />

    
    <glyph glyph-name="crmtubiao68" unicode="&#59482;" d="M482.7392 712.7488c-6.4768 3.2256-14.2848 2.5856-20.096-1.8176l-259.7632-194.816L76.8 516.1152c-10.5984 0-19.2-8.6016-19.2-19.2l0-397.3632c0-10.5984 8.6016-19.2 19.2-19.2l126.0544 0 259.7632-194.816c3.4048-2.56 7.4496-3.84 11.52-3.84 2.9184 0 5.8624 0.6656 8.576 2.0224 6.528 3.2512 10.624 9.9072 10.624 17.1776L493.3376 695.5712C493.3632 702.8416 489.2672 709.4976 482.7392 712.7488zM454.9632-60.7552l-234.1632 175.616c-3.328 2.5088-7.3728 3.84-11.52 3.84L96 118.7008 96 477.6896l113.2544 0c4.1472 0 8.192 1.3568 11.52 3.84l234.1632 175.616L454.9376-60.7552zM631.808 491.8976c-7.936-7.04-8.6272-19.1744-1.5616-27.1104 40.2176-45.184 62.4128-103.3984 62.4128-163.968 0-63.0016-23.7568-122.9568-66.8416-168.832-7.2448-7.7312-6.8864-19.8656 0.8448-27.1616 3.712-3.4816 8.4224-5.1968 13.1584-5.1968 5.0944 0 10.2144 2.0224 14.0032 6.0416 49.8176 53.0176 77.2608 122.3168 77.2608 195.1232 0 69.9904-25.6256 137.2928-72.1408 189.5168C651.8528 498.2976 639.744 498.9888 631.808 491.8976zM802.8416 632.3648c-7.168-7.808-6.6816-19.9424 1.1008-27.1616 85.632-78.9504 134.7328-191.0272 134.7328-307.4816 0-115.9168-48.7424-227.6864-133.76-306.6112-7.7568-7.2192-8.192-19.3792-0.9984-27.1616 3.7888-4.0704 8.9344-6.1184 14.08-6.1184 4.6848 0 9.3696 1.6896 13.0816 5.12 92.7744 86.1696 145.9968 208.1792 145.9968 334.7456 0 127.1296-53.6064 249.4976-147.072 335.7184C822.1952 640.6336 810.0608 640.1472 802.8416 632.3648z"  horiz-adv-x="1024" />

    
    <glyph glyph-name="wenhao" unicode="&#59007;" d="M510.827 819.958c247.096-0.028 448.767-201.816 448.28-448.542-0.49-247.641-201.839-448.844-448.57-448.241-247.462 0.604-447.696 200.956-448.024 448.289-0.328 246.882 201.23 448.521 448.315 448.494zM916.775 371.635c-0.036 223.591-181.117 405.318-405.726 405.779-223.891 0.458-405.925-181.253-406.159-405.791-0.233-223.613 181.449-405.166 405.673-405.804 223.336-0.636 406.247 182.097 406.212 405.817zM535.795 226.7c-19.143 0-37.775 0-56.939 0 0 11.373-0.608 22.537 0.128 33.613 1.485 22.364 6.658 43.815 18.344 63.301 9.094 15.164 20.675 28.25 33.541 40.276 15.979 14.935 32.148 29.678 47.81 44.94 9.222 8.986 17.419 19.009 21.68 31.483 10.207 29.884 3.682 56.569-16.199 80.337-33.016 39.47-88.236 40.822-122.051 21.067-21.313-12.451-34.092-31.502-41.552-54.414-3.344-10.272-5.654-20.881-8.651-32.155-19.652 2.333-39.767 4.722-60.636 7.199 0.779 5.206 1.336 10.1 2.263 14.924 5.196 27.06 14.589 52.297 32.254 73.943 21.519 26.37 49.555 41.723 82.58 48.062 34.471 6.616 68.92 5.901 102.442-4.987 42.921-13.939 74.68-41.177 89.113-84.564 13.857-41.655 7.049-81.004-20.227-116.155-17.302-22.299-38.82-40.415-59.042-59.832-8.896-8.542-17.896-17.136-25.623-26.696-11.477-14.198-15.858-31.37-17.242-49.325-0.782-10.137-1.313-20.294-1.992-31.014zM475.158 106.26c0 22.494 0 44.772 0 67.411 22.538 0 44.811 0 67.458 0 0-22.426 0-44.709 0-67.411-22.407 0-44.809 0-67.458 0z"  horiz-adv-x="1024" />

    
    <glyph glyph-name="shouye" unicode="&#58887;" d="M246.820827-165.464775c-32.460084 0-70.368543 19.519425-70.368543 74.540244L176.452284 218.676396 112.115213 218.676396c-11.7315 0-24.944272 7.739844-35.330557 20.697894C65.869491 253.022849 59.847225 270.610893 59.847225 288.865918l0 8.127552L473.499237 725.08378C478.330757 729.927576 485.187772 732.37556 493.855457 732.37556c9.775568 0 17.209542-2.476627 22.112671-7.365435 1.43626-1.44649 368.530541-380.805243 411.021938-424.063872l5.760384-5.872911 0-8.211437c0-18.756284-3.150769-33.140364-9.640535-43.974713-8.56641-14.316563-17.334346-22.202693-34.975584-22.202693l-62.387277 0-0.944208-314.010981-0.5565-2.286354c-0.416352-1.743153-4.415169-17.51439-15.138014-33.580244-15.73441-23.623608-37.765243-36.102905-63.711009-36.102905L592.580923-165.295984l0.013299 20.131165c0.094114 78.936999 0.286434 285.80955 0.013299 294.909954-0.143217 4.695465-4.726154 16.670434-10.056887 16.670434L416.6923 166.415568c-3.674533 0-11.053267-6.955221-11.053267-16.089383L405.639033-165.297007l-153.947812 0c-1.114022-0.080815-2.78352-0.167768-4.876531-0.167768L246.820827-165.464775zM114.246074 247.59391l91.136 0 0-338.511281c0-8.486617 11.276276-45.618637 41.438753-45.618637 0.984104 0 1.651085 0.030689 1.894553 0.057287l1.220412 0.160607 0.907381-0.055241 125.871185 0L376.714358 150.319025c0 29.993686 12.677754 45.000759 39.982034 45.000759l165.859357 0c16.022889 0 30.627932-16.269427 30.627932-16.269427 6.946014-6.949083 8.097886-19.953167 8.338286-28.140052 0.293594-9.867636 0.10639-221.751752 0.045011-287.282637l123.834438 0c26.032719 0 48.020587 40.179469 50.488008 48.256895l1.062873 337.72768 91.186126 0c4.534857 0 5.275493 1.221435 6.120472 2.634166 1.167217 1.948771 14.248024 17.616687 14.933419 26.676172-46.962829 47.804739-363.183441 369.448152-414.430498 421.59236L89.419445 281.386933c2.334434-13.436803 21.806801-31.937343 24.838905-33.793023L114.246074 247.59391zM114.246074 247.59391"  horiz-adv-x="1024" />

    
    <glyph glyph-name="xiugaimima" unicode="&#58971;" d="M831.717-128 194.564-128c-64 0-115.848 57.304-115.848 128L78.716 319.999C78.717 390.695 130.564 448 194.564 448l0 95.999c0 194.409 142.606 352 318.576 352 175.938 0 318.576-157.591 318.576-352l0-2-0.363 0c-1-16.682-13.242-30-28.607-30-15.332 0-27.606 13.318-28.576 30l-0.362 0 0 2c0 159.061-116.697 288-260.666 288-143.971 0-260.637-128.939-260.637-288L252.505 448l579.213 0c63.969 0 115.849-57.305 115.849-128.001l0-320C947.565-70.696 895.686-128 831.717-128L831.717-128zM889.625 319.999c0 35.349-25.908 64.001-57.908 64.001L194.564 384c-32 0-57.939-28.652-57.939-64.001l0-320c0-35.349 25.94-64 57.939-64l637.153 0c31.969 0 57.908 28.651 57.908 64L889.625 319.999 889.625 319.999zM542.08 134.47 542.08 32c0-17.667-12.939-32-28.939-32-16.001 0-28.97 14.334-28.97 32L484.171 134.47c-33.576 13.258-57.911 47.864-57.911 89.515 0 53.029 38.881 96.015 86.88 96.015 47.97 0 86.879-42.985 86.879-96.015C600.02 182.334 575.656 147.728 542.08 134.47L542.08 134.47zM513.141 256c-16.001 0-28.97-14.332-28.97-32.015 0-17.651 12.969-31.985 28.97-31.985 16 0 28.939 14.334 28.939 31.985C542.08 241.668 529.141 256 513.141 256L513.141 256z"  horiz-adv-x="1024" />

    
    <glyph glyph-name="dianhua" unicode="&#58938;" d="M510.798639 771.339816c-213.447347 0-386.480238-173.029822-386.480238-386.480238 0-213.446323 173.029822-386.475122 386.480238-386.475122 213.446323 0 386.475122 173.029822 386.475122 386.475122C897.274784 598.309994 724.244962 771.339816 510.798639 771.339816L510.798639 771.339816 510.798639 771.339816zM510.798639 31.980621c-194.883549 0-352.884073 158.001547-352.884073 352.879979 0 194.883549 158.000524 352.884073 352.884073 352.884073 194.878432 0 352.883049-158.000524 352.883049-352.884073C863.678618 189.982168 705.677071 31.980621 510.798639 31.980621L510.798639 31.980621 510.798639 31.980621zM588.978209 349.625098c-17.681708 0-31.070646-15.915481-47.113017-15.915481-15.910365 0-85.756129 68.836785-85.756129 85.761246 0 16.920368 15.914458 25.258267 15.914458 42.813085 0 12.632715-47.107901 89.925079-66.432015 89.925079-19.328207 0-66.436108-34.479279-66.436108-66.433038 0-92.455715 170.506349-269.653463 277.230022-269.653463 29.427216 0 66.437132 31.070646 66.437132 66.437132C683.071214 295.821705 606.532003 349.625098 588.978209 349.625098"  horiz-adv-x="1024" />

    
    <glyph glyph-name="bumen" unicode="&#59054;" d="M896 576v320h-832v-320h-64v-704h192v704h-64v256h320v-256h-64v-704h192v704h-64v256h320v-256h-64v-704h192v704h-64zM128-64h-64v576h64v-576zM512-64h-64v576h64v-576zM896-64h-64v576h64v-576z"  horiz-adv-x="1024" />

    
    <glyph glyph-name="552cd47fba2cc" unicode="&#58897;" d="M698.824501 816.530041c-3.314489 0-321.075623 0.843204-321.075623 0.843204-56.613392 0-106.663298-46.019103-106.663298-101.731986l-0.358157-6.522554-30.916127-0.74292c-56.622602 0-102.871949-51.80283-102.871949-107.516736l0-541.300326c0-55.710836 50.417273-108.255563 107.031689-108.255563l401.337621 0c56.621579 0 107.030665 45.566802 107.030665 101.286848l0 7.264451 26.764574-0.295735c56.605206 0 107.013269 52.544727 107.013269 108.265796L886.117165 559.851077l0 40.371476L698.824501 816.530041zM698.824501 762.417609l0 0.030699 133.777843-162.225755-80.264045 0c-28.503171 0-53.514821 52.998051-53.514821 81.110319C698.824501 681.332872 698.824501 709.810461 698.824501 762.417609zM699.062931 55.052083c0-27.568892-25.666566-62.739926-53.753251-62.739926L243.971036-7.687844c-28.088732 0-66.437132 39.676651-66.437132 67.246567L177.533904 600.85905c0 27.569916 35.80753 66.37164 63.886029 66.37164l29.30749 0.877997 0-500.285191c0-55.721069 50.408063-108.265796 107.021455-108.265796l321.31303 0.295735L699.061908 55.052083zM845.523631 167.824519c0-27.577079-38.346353-67.2568-66.418712-67.2568L364.828614 100.567719c-28.078499 0-53.505611 39.678698-53.505611 67.2568L311.323003 709.118706c0 27.567869 25.427112 67.254753 53.505611 67.254753l293.402353 0c-0.430812-62.349023 0-122.078383 0-122.078383 0-56.215326 37.104059-94.442976 94.109378-94.442976 0 0 41.343617 0 93.184309 0L845.524654 167.824519zM698.824501 437.997821 458.023156 437.997821c-14.777565 0-26.758434-12.107759-26.758434-27.04496 0-14.926968 11.980869-27.03575 26.758434-27.03575l240.801345 0c14.783705 0 26.765597 12.108782 26.765597 27.03575C725.590098 425.890063 713.608206 437.997821 698.824501 437.997821zM698.824501 302.79963 458.023156 302.79963c-14.777565 0-26.758434-12.108782-26.758434-27.036773 0-14.936177 11.980869-27.037796 26.758434-27.037796l240.801345 0c14.783705 0 26.765597 12.101619 26.765597 27.037796C725.590098 290.690848 713.608206 302.79963 698.824501 302.79963z"  horiz-adv-x="1024" />

    
    <glyph glyph-name="arrow-down" unicode="&#58927;" d="M512 46.309c-8.142 0-15.95 3.235-21.707 8.992l-255.827 255.827c-11.988 11.989-11.988 31.426 0 43.415 11.989 11.99 31.427 11.99 43.416 0l234.118-234.118 234.119 234.118c11.988 11.99 31.427 11.99 43.415 0 11.989-11.989 11.989-31.426 0-43.415l-255.827-255.827c-5.757-5.757-13.566-8.992-21.707-8.992zM512 46.309c-16.954 0-30.699 13.745-30.699 30.699v613.984c0 16.954 13.745 30.699 30.699 30.699s30.699-13.745 30.699-30.699v-613.984c0-16.954-13.745-30.699-30.699-30.699z"  horiz-adv-x="1024" />

    
    <glyph glyph-name="sousuo" unicode="&#58961;" d="M966.4-28.8l-230.4 227.2c60.8 67.2 96 156.8 96 256 0 217.6-176 390.4-390.4 390.4-217.6 0-390.4-176-390.4-390.4 0-217.6 176-390.4 390.4-390.4 99.2 0 188.8 35.2 256 96l230.4-227.2c9.6-9.6 28.8-9.6 38.4 0C979.2-54.4 979.2-38.4 966.4-28.8zM102.4 454.4c0 185.6 150.4 339.2 339.2 339.2s339.2-150.4 339.2-339.2c0-89.6-35.2-172.8-92.8-233.6-3.2 0-3.2-3.2-6.4-3.2-3.2-3.2-3.2-3.2-3.2-6.4-60.8-57.6-144-92.8-233.6-92.8C256 115.2 102.4 268.8 102.4 454.4z"  horiz-adv-x="1024" />

    
    <glyph glyph-name="guanli" unicode="&#58932;" d="M382.197702 766.039089 236.817614 766.039089c-58.656935 0-107.779725-48.663326-107.779725-107.320261l0-145.382135c0-58.656935 49.123814-105.312534 107.779725-105.312534l250.236228 0L487.053841 658.718829C487.053841 717.373717 440.853613 766.039089 382.197702 766.039089zM434.531628 460.543304 236.817614 460.543304c-29.330002 0-54.384631 23.466458-54.384631 52.79339L182.432982 658.718829c0 29.327956 25.053606 53.924143 54.384631 53.924143l145.380088 0c29.330002 0 52.334949-24.595164 52.334949-53.924143L434.532651 460.543304zM789.978059 766.039089 644.593877 766.039089c-58.656935 0-107.647719-48.663326-107.647719-107.320261L536.946159 408.023136l253.0319 0c58.654888 0 104.985076 46.656623 104.985076 105.312534L894.963135 658.718829C894.962112 717.373717 848.631924 766.039089 789.978059 766.039089zM789.978059 460.543304 589.467349 460.543304 589.467349 658.718829c0 29.327956 25.799596 53.924143 55.125505 53.924143L789.976012 712.642972c29.327956 0 51.588959-24.595164 51.588959-53.924143l0-145.382135 0.002047 0C841.567018 484.010785 819.303968 460.543304 789.978059 460.543304zM129.036865 250.940518l0-145.380088c0-58.656935 49.123814-105.447611 107.779725-105.447611l145.380088 0c58.656935 0 104.85614 46.790676 104.85614 105.447611L487.052818 358.127749 236.817614 358.127749C178.160679 358.127749 129.036865 309.597453 129.036865 250.940518zM434.531628 105.56043c0-29.330002-23.003923-52.051493-52.334949-52.051493L236.817614 53.508937c-29.330002 0-54.384631 22.720468-54.384631 52.051493L182.432982 250.940518c0 29.330002 25.053606 54.667064 54.384631 54.667064l197.715037 0L434.532651 105.56043zM789.976012 358.127749 536.947182 358.127749l0-252.568343c0-58.655911 48.990784-105.447611 107.646696-105.447611l145.381112 0c58.655911 0 104.986099 46.790676 104.986099 105.447611l0 145.381112C894.962112 309.59643 848.631924 358.127749 789.976012 358.127749z"  horiz-adv-x="1024" />

    
    <glyph glyph-name="qingjia1" unicode="&#58915;" d="M954.850084 113.691621c-17.891486 78.56024-54.456263 132.559085-109.153002 172.5898-13.585413 9.945513-28.062126 18.659989-44.231387 26.037003-5.776563 2.505054-11.553127 5.010107-17.328667 7.516184 0 0.089028 0 0.179079 0 0.268106 7.14677 8.009418 17.150612 13.162788 23.795962 21.742187 15.597233 20.138666 28.756951 39.83731 36.988426 68.177775 9.380648 32.299637 5.296633 75.758428-5.17179 103.072517-22.153556 57.789171-74.738192 107.520829-153.642263 106.024755-4.055362-0.268106-8.106632-0.537236-12.157901-0.805342-9.469676-1.699712-18.649755-2.705622-27.160593-5.368264-33.119305-10.360975-61.267389-29.020964-80.18218-54.220902-15.561417-20.72502-27.15343-43.61945-33.627888-74.083276-8.975419-42.22059 3.776-87.407746 18.882046-113.540939 5.189186-8.972349 11.498892-16.766872 17.590634-24.694425 5.497201-7.158027 19.433608-22.318308 27.414373-26.037003 0-0.089028 0-0.179079 0-0.268106-6.635117-2.863211-13.277398-5.726421-19.916609-8.589632-14.412244-6.592139-28.477588-15.099906-40.86778-24.157189-46.922682-34.304294-83.800591-81.678254-102.94358-144.674007-3.492544-11.491729-5.408173-22.980387-8.020674-35.700083-4.842285-23.595394-4.137227-52.810786-4.137227-81.33033 0-15.557324-0.75827-29.629831 5.690606-38.115086 7.115048-9.362228 21.176298-8.324596 37.503149-8.320503 28.019147 0 56.045457 0 84.064604 0 93.452415 0 186.933483 0 280.385898 0 26.723641 0 53.458539 0 80.18218 0 11.67797-0.004093 28.287253-2.007727 36.991496 1.87879 15.561417 6.950296 13.449313 21.788236 13.449313 44.288692C959.24416 56.250374 960.558086 88.617549 954.850084 113.691621zM576.408939 416.486902c-4.770653 14.017248-8.323573 36.912701-4.665253 55.512315 1.574868 8.016581 2.824325 15.998369 5.489014 23.059182 13.557784 35.983539 37.201274 61.122079 71.870888 75.154677 7.390317 2.991124 15.660678 4.539386 24.140817 6.262634 3.932566 0.379647 7.865131 0.759293 11.796674 1.13894 60.788481 0.197498 97.423867-31.766494 115.764584-75.723635 11.258415-26.983561 12.609179-65.787332 1.096984-93.943602-14.192234-34.718733-40.036855-60.518329-76.262918-72.307839-8.509814-2.76702-17.558911-3.397377-27.431769-5.124717-17.627473-3.074012-41.020252 4.106528-52.122101 8.824993C611.644441 353.982336 589.097936 379.204787 576.408939 416.486902zM925.231509 20.419308c-156.473751 0-312.99048 0-469.460138 0-0.022513 25.559119-1.36509 52.748365 3.00545 74.2951 16.889669 83.249029 58.498322 135.369084 119.685893 172.407652 18.031679 10.915607 39.352263 17.947767 62.029752 23.819498 54.123688 14.016225 116.373451-0.060375 153.846924-19.850094 65.542762-34.611286 109.446691-89.61604 127.338177-173.824931C926.384775 75.110931 925.485289 47.097924 925.231509 20.419308zM356.840174 155.028075C213.738989 180.333414 105.044428 305.304683 105.044428 455.668273c0 168.625512 136.697335 305.322847 305.322847 305.322847 82.686211 0 157.681252-32.883945 212.661448-86.268806l39.098483 17.890462C599.073124 759.584074 509.61058 801.411715 410.367275 801.411715c-190.948937 0-345.743442-154.794505-345.743442-345.743442 0-162.576749 112.221898-298.92002 263.421528-335.855234L356.840174 155.028075zM431.17723 621.392712c0 11.45182-9.283434 20.735253-20.735253 20.735253s-20.735253-9.283434-20.735253-20.735253l0-154.204058-85.554538-85.554538c-8.097422-8.097422-8.097422-21.22644 0-29.323862 8.097422-8.097422 21.22644-8.097422 29.323862 0l91.62786 91.62786c2.409886 2.409886 4.085038 5.270027 5.061272 8.306176 0.027629 0.086981 0.062422 0.169869 0.090051 0.25685 0.161682 0.525979 0.291642 1.059122 0.409322 1.594311 0.030699 0.1361 0.071631 0.268106 0.099261 0.405229 0.11154 0.554632 0.190335 1.11438 0.255827 1.675152 0.014326 0.121773 0.039909 0.240477 0.052189 0.363274 0.068562 0.690732 0.105401 1.38351 0.104377 2.076288 0 0.005117 0.001023 0.00921 0.001023 0.014326L431.17723 621.392712z"  horiz-adv-x="1024" />

    
    <glyph glyph-name="youjiantou" unicode="&#58928;" d="M702.6312 375.901555 356.711749 725.54277 321.103764 690.069861 634.023636 378.277672 321.63179 82.645534 357.135398 47.270862 669.533384 342.903 669.455613 342.891743Z"  horiz-adv-x="1024" />

    
    <glyph glyph-name="guanbi" unicode="&#58896;" d="M978.702-48.452l-445.171 444.892 444.876 445.155c9.103 9.103 9.103 23.861 0 32.949-9.103 9.103-23.861 9.103-32.949 0l-444.892-445.171-445.171 444.892c-9.103 9.103-23.861 9.103-32.949 0-9.103-9.103-9.103-23.861 0-32.965l445.171-444.892-444.876-445.155c-9.103-9.103-9.103-23.861 0-32.949 9.103-9.103 23.861-9.103 32.949 0l444.892 445.171 445.155-444.876c9.103-9.103 23.861-9.103 32.949 0 9.119 9.087 9.119 23.845 0.016 32.949z"  horiz-adv-x="1024" />

    
    <glyph glyph-name="xiugaimima1" unicode="&#59261;" d="M68.48 314.944c0 41.984 0 83.968 0 126.016 8.96 15.232 21.76 25.536 39.488 28.032 13.312 1.92 26.816 2.432 40.256 3.392 9.536 0.704 15.68 3.648 19.072 14.272 6.336 19.968 14.208 39.552 23.168 58.496C195.328 555.392 193.536 562.112 186.88 570.112 176.704 582.4 166.976 595.136 157.952 608.256c-10.88 15.808-9.664 36.224 3.2 49.6 23.36 24.128 47.104 47.936 71.232 71.232 15.552 14.976 41.6 14.976 58.24 1.344 10.368-8.512 21.76-16 31.168-25.408 6.72-6.72 11.904-5.632 19.136-2.24 25.984 11.968 52.16 23.424 79.744 35.776C421.888 749.504 422.464 763.52 424.64 777.28 428.8 803.648 434.048 824.448 467.328 825.728c32.32 1.28 64.704 2.56 96.96 1.408C587.072 826.304 602.368 812.8 606.72 789.632c2.112-11.136 2.496-22.592 3.392-33.92 1.024-12.736 3.456-21.888 19.2-25.984 20.096-5.248 39.168-15.168 58.112-24.256C696.768 700.992 704 701.056 711.872 707.712c9.408 8 19.136 15.808 29.248 22.848 19.2 13.376 36.096 15.104 53.76-0.256 25.92-22.528 50.56-46.912 73.152-72.832 15.808-18.176 13.888-34.624-0.384-55.04-7.104-10.112-14.848-19.84-22.976-29.184-6.784-7.808-8.768-14.656-3.776-24.96 9.152-18.88 16.64-38.592 24.128-58.24 2.56-6.72 4.48-11.136 13.12-12.096 18.304-1.92 36.48-5.44 54.592-8.896 15.488-3.008 25.472-14.016 26.496-28.48 2.56-34.304 3.904-68.8 3.2-103.168-0.512-26.944-13.76-40.192-39.424-44.608-15.232-2.624-30.72-3.584-45.824-6.72-4.608-0.96-10.112-5.76-11.968-10.176-10.752-24.896-20.608-50.24-30.912-75.712 4.736-6.08 9.792-12.608 14.976-19.072 5.184-6.464 11.136-12.352 15.744-19.2 12.864-19.136 22.08-38.4 1.408-61.568-20.48-22.976-40.768-46.656-64.192-66.432-25.088-21.184-45.248-21.184-66.24-1.28-8.192 7.744-17.856 13.952-26.88 20.8-8.192 6.208-14.976 11.2-27.328 4.864-19.456-9.984-41.088-15.744-61.376-24.32-4.48-1.856-9.152-7.616-10.176-12.416-3.072-14.528-4.928-29.376-6.4-44.224-2.688-27.264-17.92-45.376-46.656-44.032-30.4 1.408-60.928 1.6-91.264-0.128-19.52-1.152-37.632 13.632-41.28 30.208-3.392 15.488-4.096 31.616-6.784 47.296-1.472 8.704 1.6 19.456-10.24 24.192-24.256 9.728-48.384 19.84-72.64 29.888-16-12.352-32.256-25.984-49.6-38.08-17.792-12.48-38.976-10.688-53.888 3.84-22.528 21.952-44.992 44.096-66.752 66.816-18.048 18.816-19.2 37.376-4.608 58.496 6.72 9.728 13.952 19.2 21.76 28.096 17.6 20.032 17.728 19.84 5.952 43.776-5.248 10.624-12.416 20.992-14.464 32.256C169.92 280.256 157.632 282.88 140.544 283.84 113.216 285.44 84.416 285.952 68.48 314.944zM515.648 633.088C377.984 632.96 263.936 519.04 263.744 381.312c-0.192-137.6 113.6-251.84 251.328-252.288 138.176-0.448 252.992 114.304 252.672 252.48C767.424 519.296 653.248 633.152 515.648 633.088z"  horiz-adv-x="1024" />

    
    <glyph glyph-name="shiliangzhinengduixiang2" unicode="&#58901;" d="M847.422 529.097v189.751c0 0-8.81-0.14-20.060-0.14h-169.394l0.008-39.109h0.269l118.355 0.881-374.879-357.608c-3.734-3.561-5.79-8.29-5.79-13.316 0-5.015 2.061-9.743 5.805-13.312 3.803-3.606 8.877-5.598 14.273-5.598 5.399 0 10.471 1.992 14.283 5.61l377.353 359.89 0.787-126.947M216.251 626.354c0 28.877-0.137 53.283-0.137 53.283h315.812v39.211h-355.3l0.526-579.676c0-50.071 0-90.807 0-90.807h670.464c0 0-0.096 44.042-0.096 92.401v262.369h-39.086l0-262.386c0-28.888 0.014-53.293 0.014-53.293l-592.334-0.799z"  horiz-adv-x="1024" />

    
    <glyph glyph-name="huiyishi01" unicode="&#58885;" d="M501.390873 585.429639c47.032176 0 86.750783 39.717583 86.750783 86.72827l0 17.36346c0 47.053666-39.718607 86.816275-86.750783 86.816275-47.009663 0-86.72827-39.761586-86.72827-86.816275l0-17.36346C414.662603 625.147222 454.380186 585.429639 501.390873 585.429639zM440.192046 691.053258c0 33.215496 28.004821 61.285808 61.198827 61.285808 33.171494 0 61.198827-28.070312 61.198827-61.285808l0-20.406772c0-33.194006-28.027333-61.220317-61.198827-61.220317-33.194006 0-61.198827 28.027333-61.198827 61.220317L440.192046 691.053258zM851.283822 538.485467c47.009663 0 86.729294 39.696094 86.729294 86.72827L938.013115 642.554684c0 47.053666-39.718607 86.816275-86.729294 86.816275s-86.729294-39.761586-86.729294-86.816275l0-17.340947C764.554528 578.181561 804.273135 538.485467 851.283822 538.485467zM789.38403 644.196067c0 33.56649 28.343535 61.965284 61.877279 61.965284 33.522488 0 61.854766-28.398794 61.854766-61.965284l0-20.647249c0-33.522488-28.333302-61.854766-61.854766-61.854766-33.533744 0-61.877279 28.333302-61.877279 61.854766L789.38403 644.196067zM896.672568 521.120984l-2.605338 0c-38.360679 0-75.342965-16.093537-101.507882-44.140313l-55.856146-59.928904-93.581352 0c-2.495844 0-4.926196-0.547469-7.160073-1.555425l-6.743588 9.305947c-2.112104 2.902096-5.484921 4.621251-9.075703 4.621251L399.664004 429.423539c-3.733021 0-7.225565-1.860371-9.305947-4.948709l-5.200442-7.740288c-1.006933 0.186242-2.025123 0.318248-3.064802 0.318248L285.280884 417.05279l-55.856146 59.928904c-26.164916 28.046776-63.167668 44.140313-101.530394 44.140313l-2.605338 0c-40.123836 0-72.780607-32.645514-72.780607-72.780607l0-208.336956c0-55.41817 45.082778-102.362342 100.500948-102.362342l105.514125 0 51.564399-134.898363c2.299369-7.203052 8.999978-11.078313 16.531512-11.078313l69.562309 0c5.298679 0 10.29139 1.400906 13.576203 5.538133 3.284813 4.139274 4.532223 9.547447 3.349281 14.691607l-52.723805 205.030653 142.540414 0 0-190.119035-51.410903 0c-6.196119 0-11.210319-5.0142-11.210319-11.210319 0-6.185886 5.0142-11.210319 11.210319-11.210319l120.514771 0c6.196119 0 11.210319 5.024433 11.210319 11.210319 0 6.196119-5.0142 11.210319-11.210319 11.210319l-46.682205 0L525.345448 216.924797l136.246057 0-52.713572-205.030653c-1.204431-5.14416 0.055259-9.589402 3.328815-13.707187 3.305279-4.137227 8.29799-6.523577 13.552667-6.523577l76.875878 0c7.553023 0 14.254655 3.875261 16.541745 11.056823l51.597145 134.920876 98.190323 0c56.261375 0 102.526071 47.885614 102.526071 102.362342L971.490577 448.340377C971.489554 487.795994 937.902598 521.120984 896.672568 521.120984zM399.29152 397.57518l6.338359 9.42772L614.427322 407.0029l99.559507-137.133264L313.351196 269.869636l37.660738 55.954383C384.271432 341.052862 397.189649 375.165798 399.29152 397.57518zM705.458595 319.791629c2.38635-0.765433 4.740978-1.400906 7.039323-1.796926l87.156012 0c4.620227 0 18.172895 1.818415 21.436218 5.080715l4.640694 4.665253 0-55.57269-81.484849 0c-1.904373 0-3.208065-0.044002-4.105504-0.14224L705.458595 319.791629zM287.371498 271.424039c-3.185552 0.261966-6.381337 0.437975-9.645684 0.437975l-80.071663 0 0 63.702857 12.261255-12.379958c3.2623-3.305279 7.707542-5.190209 12.372795-5.190209l90.427522 0c2.156106 0 4.137227 0.197498 6.206352 0.308015L287.371498 271.424039zM385.015376 13.779074l-53.030797 0.459464-51.575656 133.255956c-2.287089 7.181563-8.997931 12.065803-16.540721 12.065803l-121.9167 0c-36.302811 0-66.824965 44.161802-66.824965 80.443124L75.126536 448.340377c0 20.998243 17.10047 53.163827 38.09769 53.163827l2.617617 0c28.758997 0 68.588121-12.065803 88.205924-33.085536l61.000306-67.481927c3.284813-3.5038 7.861038-5.51869 12.67774-5.51869l101.68389 0c-4.50971-12.130272-22.070668-39.936571-43.265386-51.52142-5.934153-3.239787-12.120039-5.296633-18.414395-5.296633l-99.340519 0-75.714426 83.399455-17.582447-17.188474 50.677193-49.877991 0-94.02035c0-9.567913 18.370393-11.625782 27.949562-11.625782l77.368088 0 0-16.389272c0-0.843204 0.305969-1.587148 0.481977-2.376117-0.176009-0.797156-0.481977-1.553379-0.481977-2.38635 0-6.196119 5.024433-11.210319 11.210319-11.210319l43.97863 0c0.261966-0.591471 0.568958-1.136893 0.798179-1.750877L385.015376 13.779074zM303.509037 239.346459l0 8.102538 416.597163 0 0-8.102538L303.509037 239.346459zM950.186366 234.528734c0-35.71134-43.792389-74.969459-81.222883-74.969459l-101.737102 0c-7.511067 0-14.210653 0.611937-16.510022-6.569626l-51.585889-139.453099-64.373123 0 47.929616 195.923228c0.942465 2.51631 2.167363 5.002944 3.481288 7.465019l45.148269 0c6.185886 0 11.210319 5.0142 11.210319 11.210319l0 21.523199 88.218204 0c9.579169 0 17.352203 7.773034 17.352203 17.34197l0 90.472548 49.078789 47.227628-14.276145 15.415085-73.743538-81.671091-101.661378 0.645706c-7.347339-0.349971-20.550035 10.214642-32.558533 22.716374l-24.622794 33.917484 89.061408 0c4.795213 0 9.403161 2.01489 12.68695 5.516644l61.001329 64.24214c19.618826 21.042245 59.512419 33.127492 88.282672 33.127492l2.650363 0c22.01541 0 46.188972-29.973662 46.188972-50.271964L950.185342 234.528734zM371.527177 467.543741c0 38.646182 55.593156 77.531817 129.862673 77.07133 78.95626-0.503467 131.965567-39.367613 131.965567-78.012771l0-21.195741 19.091824 1.249457 0 21.193695c0 71.599711-99.996458 100.522438-151.057391 100.522438-51.03842 0-151.035902-28.92375-151.035902-100.522438l0-21.193695 21.172205-0.329505L371.526153 467.543741zM173.941076 538.485467c47.820122 0 86.72827 38.907125 86.72827 86.72827L260.669346 642.554684c0 47.053666-39.727817 86.816275-86.72827 86.816275-47.009663 0-86.750783-39.761586-86.750783-86.816275l0-17.340947C87.190293 578.181561 126.931413 538.485467 173.941076 538.485467zM111.889835 644.21858c0 33.67496 28.420283 62.161758 62.052265 62.161758 33.633005 0 62.053288-28.486798 62.053288-62.161758l0-20.691251c0-33.631982-28.41926-62.052265-62.053288-62.052265-33.630958 0-62.052265 28.41926-62.052265 62.052265L111.889835 644.21858z"  horiz-adv-x="1024" />

    
    <glyph glyph-name="guanli1" unicode="&#58898;" d="M520.816806 734.413811c44.459584 0 147.856489-14.089903 147.856489-144.576793l0.042979-97.953939c0.024559-0.37453 2.359744-38.084387-17.998933-70.174246-9.843182-15.504112-22.77061-29.185716-34.172287-41.257659-17.004279-17.989723-30.429033-32.196283-30.429033-48.714492l34.500768-0.327458c0.842181 4.685719 12.707416 17.238616 21.369703 26.406416 11.830443 12.520151 26.552749 28.098965 38.123272 46.327118 26.350135 41.535999 23.180955 88.167039 23.079648 88.910982l0 96.7843c0 131.296325-94.210685 178.073698-182.373631 178.073698-88.590688 0-183.258791-46.777373-183.258791-178.073698l0.042979-95.559403c-0.143263-1.969864-3.329838-48.617277 23.172769-90.168626 11.629875-18.228153 26.435069-33.816177 38.335097-46.335305 8.359388-8.800433 19.692504-20.723997 21.301142-25.499767-7.845689-38.452777-84.072791-77.657684-145.513118-109.255333-40.026622-20.583804-74.603115-38.362726-94.313016-56.459896-56.283888-51.67594-51.335179-108.290355-51.091632-110.680798l1.508353-15.128559 428.087868 0 0 33.496905L164.893514 74.24726c2.679016 16.011672 11.477402 42.336224 39.403428 67.974138 16.315594 14.97404 50.526767 32.57286 86.763063 51.202149 72.933079 37.511335 155.609057 80.029708 163.842579 135.941112l0.177032 2.372024c0 16.543791-13.500479 30.757514-30.597879 48.748261-11.469216 12.069897-24.471344 25.752524-34.364669 41.256636-20.450774 32.074509-18.10945 69.75776-18.041912 71.312162l0 96.7843C372.075157 720.322885 476.096279 734.413811 520.816806 734.413811zM755.438405 2.47768l-65.890686 0c-4.551666 0-8.235568 3.686972-8.235568 8.236592l0 20.956288c-10.609639 3.076058-20.905122 7.388271-30.742165 12.873192l-14.912641-14.920828c-3.080152-3.083222-8.55791-3.091408-11.645225 0l-46.595224 46.591131c-1.544169 1.544169-2.412956 3.6399-2.412956 5.823636 0 2.182712 0.86981 4.278443 2.412956 5.822612l15.081487 15.08558c-5.293563 9.651824-9.491165 19.891026-12.532431 30.572296l-21.458731 0c-4.552689 0-8.236592 3.687996-8.236592 8.236592l0 65.890686c0 4.547573 3.683902 8.236592 8.236592 8.236592l21.845541 0c3.063779 10.368138 7.319709 20.426215 12.692067 30.02585l-15.628956 15.627932c-1.544169 1.544169-2.412956 3.6399-2.412956 5.822612 0 2.183735 0.868787 4.279467 2.412956 5.823636l46.594201 46.591131c3.217275 3.216251 8.428973 3.216251 11.647271 0l15.877619-15.877619c9.532097 5.231141 19.505239 9.370415 29.776164 12.350283l0 22.441105c0 4.547573 3.683902 8.236592 8.236592 8.236592l65.890686 0c4.552689 0 8.236592-3.687996 8.236592-8.236592l0-22.441105c10.239202-2.975774 20.204158-7.114025 29.767977-12.358469l15.886829 15.885805c3.216251 3.216251 8.428973 3.216251 11.645225 0l46.596248-46.591131c1.544169-1.544169 2.411933-3.638877 2.411933-5.823636 0-2.182712-0.868787-4.278443-2.411933-5.822612l-15.612583-15.613606c5.284353-9.474792 9.506515-19.535939 12.619412-30.0412l21.901823 0c4.552689 0 8.236592-3.686972 8.236592-8.236592l0-65.890686c0-4.547573-3.683902-8.236592-8.236592-8.236592l-21.475104 0c-3.000334-10.519588-7.207146-20.747533-12.564154-30.524201l15.129582-15.133675c1.544169-1.544169 2.411933-3.6399 2.411933-5.822612 0-2.183735-0.868787-4.279467-2.411933-5.823636l-46.596248-46.591131c-1.544169-1.544169-3.634784-2.411933-5.822612-2.411933-2.187829 0-4.279467 0.868787-5.823636 2.411933l-14.864546 14.869662c-9.716292-5.41329-20.027126-9.717316-30.79026-12.841469l0-20.936845C763.674996 6.164652 759.991094 2.47768 755.438405 2.47768L755.438405 2.47768zM701.243085 40.749332l42.502 0 0 16.359596c0 3.26537 2.233877 6.108115 5.402033 6.883781 11.620665 2.835581 22.606881 7.421017 32.656771 13.630439 2.781346 1.719154 6.405897 1.310855 8.730848-1.017166l11.649318-11.651364 30.05655 30.052456-11.842723 11.841699c-2.303462 2.304486-2.739391 5.884011-1.049912 8.67252 6.182816 10.240225 10.673084 21.167089 13.34289 32.473599 0.76134 3.195785 3.611248 5.454222 6.898107 5.454222l16.856923 0 0 42.502-17.162892 0c-3.25002 0-6.087649 2.213411-6.868431 5.367241-2.857071 11.410887-7.387247 22.192442-13.483082 32.04688-1.728364 2.794649-1.306762 6.408967 1.017166 8.732895l12.292977 12.292977-30.057573 30.052456-12.492522-12.493545c-2.303462-2.306532-5.873778-2.732228-8.674567-1.055029-10.079566 6.094812-20.801768 10.538007-31.855522 13.20986-3.174296 0.77055-5.415336 3.613294-5.415336 6.885827l0 17.660218-42.500976 0 0-17.660218c0-3.27151-2.241041-6.114255-5.417383-6.885827-11.110035-2.684132-21.824051-7.124258-31.861662-13.19758-2.76702-1.685385-6.363941-1.26276-8.674567 1.050935l-12.485359 12.485359-30.05655-30.052456 12.305257-12.30628c2.323928-2.320858 2.745531-5.934153 1.017166-8.729825-6.212492-10.069333-10.771321-20.842701-13.537318-32.021298-0.781806-3.162016-3.618411-5.382591-6.875594-5.382591l-17.113773 0 0-42.500976 16.83748 0c3.278673 0 6.128581-2.252297 6.889921-5.439896 2.752694-11.552104 7.242961-22.4892 13.329587-32.505321 1.694595-2.791579 1.26583-6.380314-1.043772-8.688893l-11.80793-11.80793 30.05655-30.05041 11.683087 11.688203c2.316765 2.323928 5.921873 2.743484 8.716522 1.027399 10.271948-6.312776 21.242813-10.905374 32.616862-13.651928 3.181459-0.76748 5.4225-3.615341 5.4225-6.885827L701.246155 40.749332 701.243085 40.749332 701.243085 40.749332zM722.494085 105.872538c-37.951357 0-68.827575 30.876218-68.827575 68.827575s30.876218 68.827575 68.827575 68.827575 68.827575-30.876218 68.827575-68.827575S760.445442 105.872538 722.494085 105.872538L722.494085 105.872538zM722.494085 217.30649c-23.49511 0-42.6074-19.114336-42.6074-42.6074s19.11229-42.6074 42.6074-42.6074c23.494087 0 42.6074 19.114336 42.6074 42.6074S745.988172 217.30649 722.494085 217.30649L722.494085 217.30649z"  horiz-adv-x="1024" />

    
    <glyph glyph-name="bumen1" unicode="&#59025;" d="M745.89318 272.49433c76.088743 41.084634 127.198028 121.857683 127.198028 214.051602 0 134.634018-109.696631 243.673295-243.632539 243.673295-134.634018 0-243.673295-109.696631-243.673295-243.673295 0-92.193919 51.807395-172.966968 127.198028-214.051602-160.887428-49.794577-277.979293-199.918488-277.979293-376.992605 0-12.736894 10.764832-23.500411 23.541167-23.500411s23.541167 10.764832 23.541167 23.500411c0 191.208546 155.505012 347.411668 347.370912 347.411668 191.20986 0 347.331471-155.547083 347.331471-347.411668 0-12.736894 10.764832-23.500411 23.500411-23.500411 12.818406 0 23.664749 10.764832 23.664749 23.500411C1023.215119 73.233196 906.123254 222.699753 745.89318 272.49433zM432.869022 487.244043c0 108.339852 88.209039 196.548891 196.589647 196.548891s196.548891-88.209039 196.548891-196.548891c0-108.381923-88.168283-196.589647-196.548891-196.589647S432.869022 378.16401 432.869022 487.244043zM349.427116 256.348398c11.422186 0 20.870994 9.408053 20.870994 20.870994 0 11.422186-9.450123 20.870994-20.870994 20.870994l0 0 0 0c-96.261627 0-174.363188 78.060805-174.363188 174.322432S253.165489 646.776007 349.427116 646.776007l0 0c11.422186 0 20.870994 9.408053 20.870994 20.870994 0 11.422186-9.450123 20.830238-20.870994 20.830238l0 0c-119.14544 0-216.064421-96.918981-216.064421-216.064421 0-82.128513 45.76894-153.451438 113.064914-189.811011C103.741002 238.147576 0.084141 105.526376 0.084141-51.252588c0-11.503698 9.408053-20.870994 20.830238-20.870994 11.462942 0 20.870994 9.367297 20.870994 20.870994C41.785374 118.344782 179.787675 256.348398 349.427116 256.348398L349.427116 256.348398z"  horiz-adv-x="1024" />

    
    <glyph glyph-name="yonghu2" unicode="&#58951;" d="M866.391914 21.500942c0 166.726256-110.548792 307.458487-260.5839 349.769129 75.311243 35.467793 127.582747 112.067378 127.582747 200.682625C733.390761 694.212204 633.928468 793.66938 511.674077 793.66938s-221.716684-99.457176-221.716684-221.716684c0-88.60706 49.965995-165.200506 125.264958-200.672392C265.168824 328.981942 152.30736 188.240501 152.30736 21.500942l0-29.4221c0-9.41851 7.466042-17.055444 16.884552-17.055444s16.884552 7.636934 16.884552 17.055444l0 29.4221c0 181.26846 146.301064 328.73507 323.102792 328.73507s321.869708-147.46661 321.869708-328.73507l0.674359-28.569686c0.024559-9.410324 8.269337-16.718777 17.671475-16.718777 0.01228 0 0.029676 0 0.046049 0 9.41851 0 17.033955 7.384178 17.009396 16.802688L866.391914 21.500942zM324.068282 571.952696c0 103.446024 84.159772 187.605795 187.605795 187.605795s187.605795-84.159772 187.605795-187.605795S615.120101 384.346901 511.674077 384.346901 324.068282 468.506672 324.068282 571.952696z"  horiz-adv-x="1024" />

    
    <glyph glyph-name="xitong" unicode="&#59004;" d="M508.472352 512.14786c67.34534 0 122.149982-54.804642 122.149982-122.149982s-54.804642-122.149982-122.149982-122.149982-122.149982 54.804642-122.149982 122.149982S441.127012 512.14786 508.472352 512.14786M508.472352 566.436652c-97.44853 0-176.438974-78.990444-176.438974-176.438974s78.990245-176.438974 176.438974-176.438974 176.438974 78.990444 176.438974 176.438974S605.920882 566.436652 508.472352 566.436652M944.657818 282.277112c7.75814 33.08237 11.71086 67.147074 11.71086 101.721833 0 34.574758-3.95272 68.639462-11.71086 101.721833-3.424478 14.6025-18.03817 23.663956-32.64047 20.239478-14.6025-3.424478-23.663956-18.03817-20.239478-32.64047 6.806385-29.023522 10.276233-58.927247 10.276233-89.32084s-3.469847-60.297318-10.276233-89.32084c-3.424478-14.6025 5.636978-29.215992 20.239478-32.64047C926.619648 258.613156 941.23334 267.674613 944.657818 282.277112L944.657818 282.277112zM912.571772 261.428847c1.717835 0 3.155461-0.025982 4.466372-0.082944 14.984441-0.651558 27.660046 10.967564 28.311405 25.952005 0.651558 14.984441-10.967564 27.659847-25.952005 28.311205-2.173127 0.094536-4.374234 0.134309-6.825572 0.134309-14.998631 0-27.157187-12.158756-27.157187-27.157387C885.414585 273.587604 897.573141 261.428847 912.571772 261.428847L912.571772 261.428847zM823.90289 98.055414c-11.086883 17.029254-17.073024 36.869003-17.073024 57.631526 0 58.400005 47.341902 105.741907 105.741907 105.741907 14.998431 0 27.157187 12.158756 27.157187 27.157387 0 14.998431-12.158756 27.157387-27.157187 27.157387-88.397267 0-160.056482-71.659415-160.056482-160.056482 0-31.370131 9.087639-61.488711 25.869461-87.265634 8.183252-12.569478 25.006645-16.125267 37.576123-7.941815C828.530352 68.662743 832.086142 85.486136 823.90289 98.055414L823.90289 98.055414zM640.117097-41.604096c67.575784 20.29564 129.145839 56.493897 179.853459 105.270227 10.809471 10.39775 11.143045 27.589694 0.745295 38.398966s-27.589694 11.143045-38.398966 0.745295c-44.525412-42.829562-98.556179-74.595224-157.823396-92.395556-14.364661-4.314275-22.512137-19.456608-18.197862-33.821269C610.609902-37.770895 625.752236-45.918371 640.117097-41.604096L640.117097-41.604096zM416.297246-27.156492c17.308065 36.78526 54.331963 60.762003 95.703913 60.762003 41.379345 0 78.426227-23.983939 95.731094-60.762003 6.385471-13.571399 22.563902-19.396649 36.1351-13.011178 13.571399 6.385671 19.396649 22.563902 13.011178 36.1351-26.182448 55.646072-82.263425 91.952656-144.877373 91.952656-62.609751 0-118.665745-36.302187-144.850192-91.952656-6.385471-13.571199-0.56042-29.74963 13.010979-36.1351C393.733345-46.553141 409.911576-40.72789 416.297246-27.156492L416.297246-27.156492zM205.250336 62.505118c50.488769-48.177935 111.614725-83.95228 178.654872-104.107015 14.363462-4.318272 29.507994 3.825007 33.826266 18.188468 4.318272 14.363462-3.825007 29.507994-18.188468 33.826266-58.809527 17.680413-112.457954 49.078525-156.796092 91.387239-10.851043 10.35438-28.041388 9.951653-38.395768-0.89939S194.399293 72.859497 205.250336 62.505118L205.250336 62.505118zM113.276295 261.428847c58.400005 0 105.741907-47.341902 105.741907-105.741907 0-21.122679-6.193001-41.291404-17.633844-58.497139-8.304769-12.489532-4.912469-29.346503 7.576863-37.651472 12.489532-8.304769 29.346503-4.912669 37.651472 7.576863 17.319657 26.04674 26.720084 56.661384 26.720084 88.571548 0 88.397067-71.659415 160.056482-160.056482 160.056482-14.998631 0-27.157387-12.158756-27.157387-27.157387C86.119107 273.587604 98.277864 261.428847 113.276295 261.428847L113.276295 261.428847zM107.301546 261.279748c1.830759 0.100532 3.809417 0.149099 5.974749 0.149099 14.998631 0 27.157387 12.158756 27.157387 27.157387 0 14.998431-12.158756 27.157387-27.157387 27.157387-3.11269 0-6.073482-0.072551-8.954729-0.231043-14.976046-0.822842-26.449267-13.630359-25.626425-28.606405C79.518183 271.930327 92.325499 260.456906 107.301546 261.279748L107.301546 261.279748zM79.370483 485.796926c-7.770332-33.163315-11.736842-67.251004-11.736842-101.797981 0-34.546977 3.966311-68.634866 11.736842-101.797981 3.42168-14.603099 18.033373-23.667354 32.636472-20.245873 14.603099 3.42168 23.667354 18.033573 20.245873 32.636472-6.821775 29.11526-10.304613 59.045967-10.304613 89.407382 0 30.361415 3.482639 60.292322 10.304613 89.407382 3.42168 14.603099-5.642774 29.214992-20.245873 32.636472C97.403856 509.464479 82.791963 500.400025 79.370483 485.796926L79.370483 485.796926zM113.276295 506.569042c-2.165532 0-4.14419 0.048567-5.974749 0.149099-14.976046 0.822842-27.783363-10.650579-28.606405-25.626425-0.822842-14.976046 10.650579-27.783363 25.626425-28.606405 2.881047-0.158293 5.842039-0.230843 8.954729-0.230843 14.998631 0 27.157387 12.158756 27.157387 27.157387C140.433682 494.410286 128.274926 506.569042 113.276295 506.569042L113.276295 506.569042zM201.384357 670.807888c11.442442-17.207933 17.633844-37.377258 17.633844-58.524121 0-58.393209-47.335107-105.714725-105.741907-105.714725-14.998631 0-27.157387-12.158756-27.157387-27.157387 0-14.998631 12.158756-27.157387 27.157387-27.157387 88.400664 0 160.056482 71.635631 160.056482 160.0293 0 31.932949-9.398228 62.548592-26.720084 88.59873-8.304769 12.489532-25.16194 15.881832-37.651472 7.576863S193.079588 683.29742 201.384357 670.807888L201.384357 670.807888zM383.905208 809.599787c-67.040147-20.154935-128.166103-55.92908-178.654872-104.107015-10.851043-10.35438-11.25357-27.544725-0.89919-38.395768 10.35438-10.851043 27.544725-11.25357 38.395768-0.89919 44.338139 42.308915 97.986565 73.706827 156.796092 91.387239 14.363462 4.318272 22.50674 19.462804 18.188468 33.826266C413.413202 805.774581 398.26867 813.91786 383.905208 809.599787L383.905208 809.599787zM607.732254 795.154381c-17.303468-36.775266-54.348552-60.762203-95.703913-60.762203-41.396133 0-78.42183 23.974146-95.731094 60.762203-6.385471 13.571399-22.563902 19.396649-36.1351 13.010979-13.571399-6.385471-19.396649-22.563902-13.010979-36.1351 26.186446-55.654466 82.245038-91.952656 144.877373-91.952656 62.591363 0 118.669742 36.310581 144.850192 91.952656 6.385471 13.571399 0.56022 29.74963-13.011178 36.1351C630.296155 814.55103 614.117724 808.72578 607.732254 795.154381L607.732254 795.154381zM819.96476 704.337155c-50.705222 48.744751-112.269881 84.939811-179.83767 105.261633-14.363062 4.319871-29.508393-3.821809-33.828264-18.184671s3.821809-29.508393 18.184871-33.828264c59.273013-17.826913 113.309576-49.596174 157.839185-92.40415 10.812469-10.394552 28.004213-10.055582 38.398766 0.756887S830.777229 693.942603 819.96476 704.337155L819.96476 704.337155zM912.571772 506.569042c-58.407 0-105.741907 47.321516-105.741907 105.714725 0 20.786707 5.984742 40.627055 17.073024 57.658508 8.183252 12.569478 4.627463 29.392872-7.942015 37.576123-12.569478 8.183252-29.392872 4.627463-37.576123-7.942015-16.78422-25.780321-25.869461-55.8999-25.869461-87.292815 0-88.393669 71.655817-160.0293 160.056482-160.0293 14.998431 0 27.157187 12.158756 27.157187 27.157387C939.72896 494.410286 927.570203 506.569042 912.571772 506.569042L912.571772 506.569042zM917.038144 506.651786c-1.310911-0.056961-2.748337-0.082944-4.466372-0.082944-14.998631 0-27.157187-12.158756-27.157187-27.157387 0-14.998631 12.158556-27.157387 27.157187-27.157387 2.451538 0 4.652646 0.039773 6.825572 0.134109 14.984441 0.651558 26.603563 13.326964 25.952005 28.311405C944.697991 495.684222 932.022585 507.303344 917.038144 506.651786L917.038144 506.651786z"  horiz-adv-x="1024" />

    
    <glyph glyph-name="zuzhi" unicode="&#58933;" d="M519.936256-58.112a33.024 33.024 0 0 0-30.72 0l-397.312 209.8176 149.1456 78.2336 217.344-115.2a98.4576 98.4576 0 0 1 92.3648 0l217.1392 115.1488 149.2992-79.4624-397.312-208.5376zM237.517056 462.7456l220.928-116.736a99.0208 99.0208 0 0 1 92.2624 0l220.672 116.6336 145.664-78.9504-397.2608-210.5344a32.4608 32.4608 0 0 0-30.464 0l-397.2608 212.48L237.568256 462.7456z m710.4-252.5696l-109.1072 57.2416 109.1584 57.856c21.9648 11.6224 35.584 34.3552 35.584 59.392 0 25.0368-13.6192 47.8208-35.584 59.392L842.240256 500.1216l105.728 55.9104c21.9648 11.6224 35.584 34.304 35.584 59.392 0 24.9856-13.6704 47.6672-35.584 59.2896L550.707456 884.736a100.352 100.352 0 0 1-92.2624 0L61.133056 674.7136C39.219456 663.04 25.600256 640.3584 25.600256 615.3728s13.6192-47.7184 35.5328-59.392L166.912256 500.1728 61.133056 444.0576A66.9184 66.9184 0 0 1 25.600256 384.6656c0-24.9856 13.6192-47.7696 35.5328-59.392l109.1584-57.856-109.056-57.1904A66.56 66.56 0 0 1 25.600256 151.04c0-24.9344 13.6192-47.616 35.6352-59.136l397.312-208.5376a98.9696 98.9696 0 0 1 92.0576 0l397.2608 208.5376a66.56 66.56 0 0 1 35.6864 59.136 66.56 66.56 0 0 1-35.6352 59.136z"  horiz-adv-x="1024" />

    
    <glyph glyph-name="gonggao" unicode="&#58884;" d="M127.936 128h768.128C931.477333 128 960 157.909333 960 195.2V743.466667C960 780.586667 931.434667 810.666667 896.064 810.666667H127.936C92.522667 810.666667 64 780.757333 64 743.466667v-548.266667C64 158.08 92.565333 128 127.936 128zM106.666667 743.466667c0 12.608 9.429333 22.506667 21.269333 22.506666h768.128c11.733333 0 21.269333-10.026667 21.269333-22.506666v-548.266667c0-12.608-9.429333-22.506667-21.269333-22.506667H127.936c-11.733333 0-21.269333 10.026667-21.269333 22.506667V743.466667z m665.045333-222.293334c11.776 0 21.333333 9.984 21.333333 22.336 0 12.330667-9.557333 22.336-21.333333 22.336H252.288c-11.776 0-21.333333-10.005333-21.333333-22.336 0-12.352 9.557333-22.357333 21.333333-22.357333h519.424z m-257.301333-156.458666c11.776 0 21.333333 10.026667 21.333333 22.357333 0 12.330667-9.557333 22.336-21.333333 22.336H252.288c-11.776 0-21.333333-10.005333-21.333333-22.336 0-12.352 9.557333-22.357333 21.333333-22.357333h262.122667zM531.989333 170.624c-7.04 0.426667-14.144-2.666667-18.602666-8.810667L388.053333-10.666667a21.312 21.312 0 1 1 34.517334-25.088l109.418666 150.613334 109.397334-150.613334a21.312 21.312 0 1 1 34.517333 25.088l-125.333333 172.501334a21.354667 21.354667 0 0 1-18.581334 8.810666z"  horiz-adv-x="1024" />

    
    <glyph glyph-name="weizhi" unicode="&#58907;" d="M629.736 508.927c0 64.917-53.631 117.538-119.783 117.538s-119.783-52.621-119.783-117.538c0-64.897 53.631-117.518 119.783-117.518s119.783 52.621 119.783 117.518zM421.496 507.131c0 47.925 39.614 86.792 88.456 86.792 48.86 0 88.456-38.867 88.456-86.792s-39.596-86.791-88.456-86.791c-48.84 0-88.457 38.867-88.457 86.791zM509.953 83.147s287.453 285.974 287.453 427.708c0 141.753-128.709 256.633-287.453 256.633-158.744 0-287.453-114.88-287.453-256.633 0-141.734 287.453-427.708 287.453-427.708zM509.953 734.59c138.384 0 250.588-101.632 250.588-227.010 0-125.396-250.588-378.38-250.588-378.38s-250.588 252.984-250.588 378.38c0 125.378 112.203 227.010 250.588 227.010zM679.438 155.98l-24.813-23.954c16.243-10.143 25.86-21.464 25.86-32.374 0-30.895-73.748-65.422-172.46-65.422-98.711 0-172.46 34.526-172.46 65.422 0 11.902 11.152 24.327 30.334 35.162l-22.493 25.618c-26.274-16.505-41.712-37.409-41.712-60.742 0-56.234 88.681-98.657 206.331-98.657 117.631 0 206.332 42.405 206.332 98.657-0.038 21.24-12.762 40.532-34.919 56.29z"  horiz-adv-x="1024" />

    
    <glyph glyph-name="qingjia" unicode="&#59012;" d="M842.234758 566.067288H182.301758c-46.585758 0-84.700913-38.116179-84.700913-84.700913v-419.158174c0-46.585758 38.116179-84.700913 84.700913-84.700914h659.934024c46.585758 0 84.700913 38.116179 84.700913 84.700914v419.158174c0 46.585758-38.116179 84.700913-84.701937 84.700913z m25.725118-503.859087c0-13.944294-11.780825-25.726143-25.725118-25.726143H182.301758c-13.944294 0-25.725119 11.781848-25.725119 25.726143V481.365351c0 13.944294 11.780825 25.725119 25.725119 25.725119h659.931976c13.944294 0 25.725119-11.780825 25.725119-25.725119v-419.15715h0.001023zM631.914378 242.298367H392.622138c-9.808821 0-17.833011 8.025213-17.83301 17.83301v23.309774c0 9.808821 8.025213 17.833011 17.83301 17.83301h239.29224c9.808821 0 17.833011-8.025213 17.83301-17.83301v-23.309774c0-9.807798-8.025213-17.833011-17.83301-17.83301zM482.779337 152.141168v239.292239c0 9.808821 8.025213 17.833011 17.83301 17.833011h23.309774c9.808821 0 17.833011-8.025213 17.83301-17.833011v-239.292239c0-9.808821-8.025213-17.833011-17.83301-17.833011h-23.309774c-9.807798 0-17.833011 8.024189-17.83301 17.833011z m-76.509831 370.825668v102.552354c0 28.131249 11.076391 54.70005 31.187547 74.811205s46.68098 31.187547 74.811205 31.187547 54.70005-11.076391 74.811205-31.187547c20.112179-20.111156 31.187547-46.68098 31.187547-74.811205v-102.552354h58.976819v102.552354c0 90.736717-74.238853 164.975571-164.975571 164.975571s-164.975571-74.238853-164.975571-164.975571v-102.552354h58.976819z"  horiz-adv-x="1024" />

    
    <glyph glyph-name="tuichu" unicode="&#58967;" d="M504.48896-44.38016c-54.07744 0-106.58816 10.17856-155.9808 30.35648-47.744 19.38944-90.55744 47.19104-127.35488 82.62144S155.47904 145.3056 135.2704 191.24224c-20.89472 47.54944-31.49312 98.07872-31.49312 150.1696 0 62.32576 15.872 124.20608 45.87008 179.02592 29.0048 52.96128 71.13216 99.46624 121.86624 134.47168 14.09536 9.72288 33.67936 6.57408 43.7504-6.96832 10.07104-13.5424 6.8608-32.36352-7.23456-42.03008-42.88-29.66016-78.45888-68.87424-102.90688-113.57696-25.66656-46.86336-38.67136-97.63328-38.67136-150.92736 0-86.94272 35.1744-168.69376 99.04128-230.15424 63.83616-61.48096 148.71552-95.34976 238.99648-95.34976 90.24512 0 175.16032 33.8688 239.0272 95.34976 63.86176 61.46048 99.00544 143.21152 99.00544 230.15424 0 53.22752-12.96896 104.0896-38.66624 150.92736-24.44288 44.672-60.0576 83.91168-102.93248 113.5104-14.06464 9.67168-17.34656 28.4928-7.23968 42.03008s29.65504 16.72704 43.71968 6.9632c50.76992-35.00544 92.95872-81.5104 121.92768-134.47168 30.0288-54.82496 45.90592-116.69504 45.90592-179.02592 0-52.09088-10.60352-102.61504-31.52896-150.20032-20.1728-45.93664-49.08544-87.21408-85.87776-122.64448s-79.61088-63.20128-127.35488-82.68288c-49.42848-20.04992-101.9136-30.19264-155.98592-30.19264z m9.4208 418.6368c-17.31072 0-31.33952 13.45024-31.33952 30.14144v357.3248c0 16.63488 14.0288 30.17728 31.33952 30.17728 17.3056 0 31.37024-13.5424 31.37024-30.17728v-357.32992c0-16.68608-14.06464-30.13632-31.37024-30.13632z"  horiz-adv-x="1024" />

    
    <glyph glyph-name="add" unicode="&#58934;" d="M816 80m-32 0a32 32 0 1 1 64 0 32 32 0 1 1-64 0ZM512-72a456 456 0 1 0 395.76 229.36 32 32 0 0 0-55.52 32 392 392 0 1 1-145.44-145.44 32 32 0 0 0 32-55.52A456 456 0 0 0 512-72zM704 352H320a32 32 0 0 0 0 64h384a32 32 0 0 0 0-64zM512 160a32 32 0 0 0-32 32V576a32 32 0 0 0 64 0v-384a32 32 0 0 0-32-32z"  horiz-adv-x="1024" />

    
    <glyph glyph-name="bumen2" unicode="&#59036;" d="M434.421 726.17a75.609 75.609 0 1 1 154.847 0 75.609 75.609 0 1 1-154.847 0z m231.024-318.638H589.27V468.97h-0.624v40.96c0 45.056-34.56 81.92-76.8 81.92s-76.8-36.864-76.8-81.92v-102.398h-76.8v-33.622h122.88v-410.197h61.44V373.91h122.88v33.622z m42.431 318.638a75.609 75.609 0 1 1 154.847 0 75.609 75.609 0 1 1-154.847 0z m153.912-257.2v40.96c0 45.056-34.56 81.92-76.8 81.92s-76.8-36.864-76.8-81.92V334.3h-101.84V-22.938h-47.476v-13.35h106.573V221.676h197.279V468.97H861.788z m-699.86 257.2a75.609 75.609 0 1 1 154.847 0 75.609 75.609 0 1 1-154.847 0z m256.375-475.652v83.781h-101.84V509.93c0 45.056-34.56 81.92-76.8 81.92s-76.8-36.864-76.8-81.92v-40.96H161.927V221.676h197.279v-257.963H465.78v13.35h-47.477V250.518z"  horiz-adv-x="1024" />

    
    <glyph glyph-name="tingxindancijieshishuoming" unicode="&#58917;" d="M512 768C300.266667 768 128 595.733333 128 384s172.266667-384 384-384 384 172.266667 384 384S723.733333 768 512 768m0-810.666667C276.736-42.666667 85.333333 148.736 85.333333 384S276.736 810.666667 512 810.666667s426.666667-191.402667 426.666667-426.666667-191.402667-426.666667-426.666667-426.666667M466.709333 624.938667a42.666667 42.666667 0 1 1 85.333334 0 42.666667 42.666667 0 0 1-85.333334 0zM512 106.666667a32 32 0 0 0-32 32v362.666666a32 32 0 1 0 64 0v-362.666666A32 32 0 0 0 512 106.666667"  horiz-adv-x="1024" />

    
    <glyph glyph-name="icon-text-fn-edit" unicode="&#58989;" d="M807.076 564.967c-17.693 0-32.088-14.395-32.088-32.088v-473.591c0-14.953-12.163-27.117-27.114-27.117h-532.82c-14.952 0-27.117 12.164-27.117 27.117V651.28c0 14.951 12.165 27.114 27.117 27.114h414.414c17.693 0 32.088 14.394 32.088 32.087 0 17.69-14.395 32.083-32.088 32.083H215.054c-50.336 0-91.287-40.95-91.287-91.284v-591.992c0-50.336 40.951-91.288 91.287-91.288h532.819c50.334 0 91.284 40.952 91.285 91.288V532.879c0.001 17.693-14.391 32.088-32.082 32.088zM451.867 505.767H274.256c-17.693 0-32.088-14.392-32.088-32.083 0-17.693 14.395-32.088 32.088-32.088h177.605c17.688 0 32.083 14.394 32.088 32.088 0 17.69-14.392 32.083-32.082 32.083zM890.825 790.525c-6.066 6.07-14.121 9.413-22.684 9.413s-16.621-3.343-22.687-9.413l-294.17-294.161c-6.07-6.065-9.414-14.12-9.414-22.681s3.344-16.618 9.413-22.685c6.065-6.063 14.119-9.402 22.681-9.402 8.597 0 16.656 3.341 22.688 9.403l294.171 294.16c6.068 6.068 9.41 14.124 9.41 22.684 0 8.562-3.342 16.617-9.408 22.682zM242.168 296.08299999999997c0-17.69 14.395-32.082 32.088-32.082h355.211c17.693 0 32.088 14.392 32.088 32.082 0 17.693-14.395 32.088-32.088 32.088H274.256c-17.693 0-32.088-14.395-32.088-32.088z"  horiz-adv-x="1024" />

    
    <glyph glyph-name="xiazai" unicode="&#58895;" d="M1064.064-83.072a44.736 44.736 0 0 0-44.672-44.736H86.144a44.736 44.736 0 1 0 0 89.472h933.248c24.704 0 44.672-20.032 44.672-44.736zM552.704 43.136a44.736 44.736 0 0 0-44.736 44.736V850.752a44.736 44.736 0 0 0 89.344 0v-762.88a44.736 44.736 0 0 0-44.608-44.8zM584.32 56.512a44.672 44.672 0 0 0-63.232 0l-335.36 335.744a44.672 44.672 0 1 0 63.168 63.296l335.36-335.744a44.8 44.8 0 0 0 0-63.36zM521.088 56.512a44.8 44.8 0 0 0 0 63.296l335.36 335.744a44.8 44.8 0 0 0 63.168-63.296l-335.36-335.744a44.608 44.608 0 0 0-63.168 0z"  horiz-adv-x="1088" />

    
    <glyph glyph-name="tuichu1" unicode="&#59105;" d="M511.365-60.889c-221.971 0-402.647 180.613-402.647 402.647 0 150.625 83.028 287.444 216.661 357.228 12.245 6.372 27.364 1.624 33.736-10.621s1.624-27.364-10.621-33.736c-117.077-61.1-189.797-180.988-189.797-312.871 0-194.42 158.185-352.605 352.605-352.605s352.605 158.185 352.605 352.605c0 135.319-75.469 256.582-196.856 316.432-12.37 6.122-17.493 21.116-11.37 33.486 6.122 12.432 21.116 17.43 33.486 11.37 138.693-68.409 224.782-206.852 224.782-361.351 0.062-221.971-180.551-402.584-402.584-402.584zM511.365 353.503c-13.807 0-24.99 11.183-24.99 24.99V807.004c0 13.807 11.245 24.99 24.99 24.99 13.807 0 25.052-11.183 25.052-24.99v-428.449c-0.063-13.807-11.246-25.052-25.052-25.052z"  horiz-adv-x="1024" />

    
    <glyph glyph-name="tubiaozhizuomoban" unicode="&#58936;" d="M513 797.8c-229.2 0-415-185.8-415-415s185.8-415 415-415 415 185.8 415 415-185.8 415-415 415z m0-796.8c-210.5 0-381.8 171.3-381.8 381.8S302.5 764.6 513 764.6s381.8-171.3 381.8-381.8S723.5 1 513 1zM672.4 492.4c25.9 25.9 25.9 68 0 93.9-13 13-30 19.5-46.9 19.5-17 0-34-6.5-47-19.5l-22-22 93.9-93.9 22 22zM619 439l-93.9 93.9c-66-66-169.7-169.6-169.7-169.6L324.5 250H264v-49.8h331.5V250H378.1l71.3 19.4L619 439zM391.2 305.2l8.8 32.3 125.1 125.1 23.5-23.5L423.5 314l-32.3-8.8zM645.8 250h83v-49.8h-83z"  horiz-adv-x="1024" />

    
    <glyph glyph-name="zhaopin" unicode="&#59151;" d="M1021.786589-68.01993l-285.548478 285.553594c24.950252 30.468942 45.327348 64.190975 60.759828 100.674911 21.569248 51.007721 32.513508 105.178481 32.513508 161.015183 0 55.830563-10.94426 110.007463-32.513508 161.017231-20.839631 49.25889-50.656727 93.495394-88.644922 131.476427-37.982056 37.982056-82.217537 67.805292-131.477451 88.639806-51.008744 21.575388-105.179504 32.513508-161.016207 32.513508-55.830563 0-110.007463-10.93812-161.01723-32.513508-49.257867-20.833491-93.495394-50.656727-131.476427-88.639806-37.982056-37.98001-67.805292-82.217537-88.638783-131.475404-21.575388-51.008744-32.513508-105.185644-32.513508-161.01723 0-55.836703 10.93812-110.007463 32.513508-161.015184 20.833491-49.259914 50.656727-93.496417 88.639806-131.47745 37.981033-37.988196 82.217537-67.811432 131.476427-88.644923 51.008744-21.569248 105.185644-32.513508 161.017231-32.513508 55.836703 0 110.007463 10.943236 161.015183 32.513508 37.292348 15.772218 71.691809 36.705993 102.690824 62.418608l285.370423-285.376563 56.849776 56.8508zM415.859359 100.587162c-208.778001 0-378.63148 169.855526-378.63148 378.63762 0 208.778001 169.853479 378.632503 378.63148 378.632503 208.782094 0 378.63762-169.853479 378.63762-378.632503 0-208.782094-169.855526-378.63762-378.63762-378.63762z m0 0M580.038606 413.17446c-26.046213 27.03882-57.045227 46.87561-90.75498 58.548464 48.842405 26.070772 82.162278 77.55126 82.162278 136.674822 0 85.364203-69.447698 154.811902-154.806785 154.811902-85.364203 0-154.811902-69.447698-154.811902-154.811902 0-59.122539 33.319873-110.60405 82.162278-136.674822-33.710776-11.67183-64.708767-31.509644-90.757027-58.548464-21.079084-21.87624-37.658691-47.193859-49.270146-75.244728-12.007475-28.987195-18.095124-59.479673-18.095124-90.622974h35.014468c0 109.279892 89.647763 201.598484 195.751313 201.598484 106.10969 0 195.751313-92.318592 195.751312-201.598484h35.018562c0 31.143301-6.086625 61.634756-18.0941 90.622974-11.611455 28.05087-28.191062 53.368488-49.270147 75.244728zM296.839639 608.396723c0 66.056462 53.744042 119.798457 119.79948 119.798457S536.431435 674.453185 536.431435 608.396723c0-66.056462-53.736878-119.794363-119.792316-119.794363S296.839639 542.341285 296.839639 608.396723z m0 0"  horiz-adv-x="1024" />

    
    <glyph glyph-name="shangchuan" unicode="&#58888;" d="M832 448L512 832 192 448h256v-320h128V448h256zM1024 256v-256a128 128 0 0 0-128-128H128a128 128 0 0 0-128 128v256h64v-256a69.632 69.632 0 0 1 64-64h768a73.216 73.216 0 0 1 64 64v256h64z"  horiz-adv-x="1024" />

    
    <glyph glyph-name="bianji" unicode="&#59038;" d="M810.34-101.206H214.365c-82.15 0-148.994 66.843-148.994 148.994V703.361c0 82.15 66.843 148.994 148.994 148.994h398.122c16.471 0 29.799-13.328 29.799-29.799s-13.328-29.799-29.799-29.799H214.365c-49.296 0-89.396-40.1-89.396-89.396v-655.573c0-49.296 40.1-89.396 89.396-89.396H810.34c49.296 0 89.396 40.1 89.396 89.396V551.049c0 16.471 13.328 29.799 29.799 29.799s29.799-13.328 29.799-29.799v-503.261c-0.001-82.15-66.844-148.994-148.994-148.994zM461.863 204.523c-5.82 0-11.669 1.688-16.849 5.238-13.561 9.312-16.995 27.849-7.682 41.439L841.913 840.54c9.312 13.532 27.849 16.995 41.439 7.682 13.561-9.312 16.995-27.849 7.682-41.439l-404.582-589.34c-5.761-8.41-15.102-12.92-24.589-12.92z"  horiz-adv-x="1024" />

    
    <glyph glyph-name="shouye1" unicode="&#59066;" d="M834.56-74.24h-209.92c-15.36 0-25.6 10.24-25.6 25.6V204.8h-171.52v-253.44c0-15.36-10.24-25.6-25.6-25.6H199.68c-15.36 0-25.6 10.24-25.6 25.6v358.4H89.6c-10.24 0-20.48 5.12-23.04 15.36-5.12 10.24-2.56 20.48 5.12 28.16L504.32 806.4c5.12 5.12 12.8 7.68 17.92 7.68 7.68 0 12.8-2.56 17.92-7.68l417.28-460.8c7.68-7.68 7.68-17.92 5.12-28.16s-12.8-15.36-23.04-15.36h-84.48l5.12-350.72c0-7.68-2.56-12.8-7.68-17.92s-10.24-7.68-17.92-7.68z m-184.32 51.2h158.72l-5.12 350.72c0 7.68 2.56 12.8 7.68 17.92s10.24 7.68 17.92 7.68h51.2l-358.4 396.8L148.48 360.96h51.2c15.36 0 25.6-10.24 25.6-25.6v-358.4h151.04V230.4c0 15.36 10.24 25.6 25.6 25.6h222.72c15.36 0 25.6-10.24 25.6-25.6v-253.44z"  horiz-adv-x="1024" />

    
    <glyph glyph-name="arrowdropdown" unicode="&#58943;" d="M341.333 469.333L512 298.667l170.667 170.666z"  horiz-adv-x="1024" />

    
    <glyph glyph-name="bumen3" unicode="&#58905;" d="M119.46 124.56a4.667 4.667 0 1 1 191.16 0 4.667 4.667 0 1 1-191.16 0zM406.2 124.56a4.666 4.666 0 1 1 191.12 0 4.666 4.666 0 1 1-191.12 0zM406.2 636.56a4.666 4.666 0 1 1 191.12 0 4.666 4.666 0 1 1-191.12 0zM692.92 124.56a4.666 4.666 0 1 1 191.12 0 4.666 4.666 0 1 1-191.12 0zM189.44 390.82h54.62v-121.18h-54.62V390.82zM476.16 499.63h54.6v-121.18h-54.6V499.63zM762.88 390.82h54.6v-121.18h-54.6V390.82zM189.665 428.38H817.5v-55.89H189.665v55.89z"  horiz-adv-x="1024" />

    
    <glyph glyph-name="qingjia2" unicode="&#58919;" d="M66.56 727.04h194.56v-56.32c0-15.36 15.36-30.72 30.72-30.72s30.72 15.36 30.72 30.72V727.04h245.76v-56.32c0-15.36 15.36-30.72 30.72-30.72s30.72 15.36 30.72 30.72V727.04h168.96v-281.6h66.56V727.04c0 35.84-30.72 66.56-66.56 66.56h-163.84V855.04c0 15.36-15.36 30.72-30.72 30.72s-30.72-15.36-30.72-30.72V793.6H322.56V855.04c0 15.36-15.36 30.72-30.72 30.72s-30.72-15.36-30.72-30.72V793.6H66.56C30.72 793.6 0 762.88 0 727.04v-619.52c0-35.84 30.72-66.56 66.56-66.56h389.12v66.56H66.56V727.04zM220.16 501.76z m-51.2 0c0-15.36 10.24-35.84 25.6-40.96 15.36-10.24 35.84-10.24 51.2 0 15.36 10.24 25.6 25.6 25.6 40.96 0 15.36-10.24 35.84-25.6 40.96-15.36 10.24-35.84 10.24-51.2 0-15.36-10.24-25.6-25.6-25.6-40.96M440.32 501.76z m-51.2 0c0-15.36 10.24-35.84 25.6-40.96 15.36-10.24 35.84-10.24 51.2 0 15.36 10.24 25.6 25.6 25.6 40.96 0 15.36-10.24 35.84-25.6 40.96-15.36 10.24-35.84 10.24-51.2 0-15.36-10.24-25.6-25.6-25.6-40.96M650.24 501.76z m-46.08 0c0-15.36 10.24-35.84 25.6-40.96 15.36-10.24 35.84-10.24 51.2 0 15.36 10.24 25.6 25.6 25.6 40.96 0 15.36-10.24 35.84-25.6 40.96-15.36 10.24-35.84 10.24-51.2 0-20.48-10.24-25.6-25.6-25.6-40.96M220.16 307.2z m-51.2 0c0-15.36 10.24-35.84 25.6-40.96 15.36-10.24 35.84-10.24 51.2 0 15.36 10.24 25.6 25.6 25.6 40.96 0 15.36-10.24 35.84-25.6 40.96-15.36 10.24-35.84 10.24-51.2 0-15.36-5.12-25.6-25.6-25.6-40.96M440.32 307.2z m-51.2 0c0-15.36 10.24-35.84 25.6-40.96 15.36-10.24 35.84-10.24 51.2 0 15.36 10.24 25.6 25.6 25.6 40.96 0 15.36-10.24 35.84-25.6 40.96-15.36 10.24-35.84 10.24-51.2 0-15.36-5.12-25.6-25.6-25.6-40.96M773.12 378.88c-138.24 0-250.88-112.64-250.88-250.88s112.64-250.88 250.88-250.88S1024-10.24 1024 128s-112.64 250.88-250.88 250.88z m0-435.2c-102.4 0-184.32 81.92-184.32 184.32s81.92 184.32 184.32 184.32 184.32-81.92 184.32-184.32-81.92-184.32-184.32-184.32zM870.4 163.84h-61.44v71.68c0 15.36-15.36 30.72-30.72 30.72s-30.72-15.36-30.72-30.72V128c0-15.36 15.36-30.72 30.72-30.72H870.4c15.36 0 30.72 15.36 30.72 30.72 0 20.48-15.36 35.84-30.72 35.84z"  horiz-adv-x="1024" />

    
    <glyph glyph-name="bianji1" unicode="&#58883;" d="M716.683 0.536h-460.05c-42.275 0-76.676 36.906-76.676 82.26V640.39c0 45.35 34.4 73.045 76.676 73.045h357.814c14.132 0 25.56-7.166 25.56-22.3 0-15.136-11.427-21.28-25.56-21.28H255.61c-14.083 0-33.747-14.355-33.747-29.464v-557.594c0-15.138 10.468-40.787 34.77-41.749h460.05c14.104 0 35.534 20.957 34.766 41.749V521.501c0 15.136 7.333 27.42 21.465 27.42 14.134 0 20.44-12.283 20.44-27.42v-438.705c0-45.354-34.402-82.26-76.671-82.26zM565.502 449.475c-6.544 0-14.108-1.403-19.091 3.945-9.996 10.72-7.95 21.907 2.046 32.627L802.452 758.54c9.995 10.724 23.079 13.793 33.07 3.07 9.996-10.718 6.926-20.883-3.07-31.608L578.458 456.49c-4.985-5.376-12.956-7.015-12.956-7.015zM461.1 449.475H307.75c-14.11 0-25.561 7.167-25.561 22.304 0 15.136 11.45 22.303 25.56 22.303H461.1c14.107 0 25.557-7.167 25.557-22.303 0-15.136-11.45-22.304-25.556-22.304zM614.447 274.728H307.75c-14.11 0-25.56 7.139-25.56 22.301 0 15.167 11.45 22.304 25.56 22.304h306.698c14.132 0 25.56-7.137 25.56-22.304 0-15.161-11.428-22.3-25.56-22.3z"  horiz-adv-x="1024" />

    
    <glyph glyph-name="zuzhi1" unicode="&#58906;" d="M196.9 114c25 0 45.4-20.3 45.4-45.3v-108.6c0-25-20.4-45.3-45.4-45.3H88.2c-25 0-45.4 20.3-45.4 45.3V68.7c0 25 20.4 45.3 45.4 45.3h108.7m0 42.6H88.2c-48.6 0-88.1-39.4-88.1-88V-40c0-48.6 39.4-88 88.1-88h108.7c48.6 0 88.1 39.4 88.1 88V68.7c0 48.6-39.5 87.9-88.1 87.9zM566.7 114c25 0 45.4-20.3 45.4-45.3v-108.6c0-25-20.4-45.3-45.4-45.3H458c-25 0-45.4 20.3-45.4 45.3V68.7c0 25 20.4 45.3 45.4 45.3h108.7m0 42.6H458c-48.6 0-88.1-39.4-88.1-88V-40c0-48.6 39.4-88 88.1-88h108.7c48.6 0 88.1 39.4 88.1 88V68.7c0 48.6-39.5 87.9-88.1 87.9zM566.7 853.4c25 0 45.4-20.3 45.4-45.3v-108.6c0-25-20.4-45.3-45.4-45.3H458c-25 0-45.4 20.3-45.4 45.3V808c0 25 20.4 45.3 45.4 45.3h108.7m0 42.7H458c-48.6 0-88.1-39.4-88.1-88v-108.6c0-48.6 39.4-88 88.1-88h108.7c48.6 0 88.1 39.4 88.1 88V808c0 48.6-39.5 88-88.1 88zM936.5 114c25 0 45.4-20.3 45.4-45.3v-108.6c0-25-20.4-45.3-45.4-45.3H827.8c-25 0-45.4 20.3-45.4 45.3V68.7c0 25 20.4 45.3 45.4 45.3h108.7m0 42.6H827.8c-48.6 0-88.1-39.4-88.1-88V-40c0-48.6 39.4-88 88.1-88h108.7c48.6 0 88.1 39.4 88.1 88V68.7c0 48.6-39.4 87.9-88.1 87.9zM141.5 218.3V338.2c0 23.5 19.1 42.6 42.7 42.6h653.6c23.5 0 42.7-19.1 42.7-42.6v-119.9h42.7V338.2c0 47.1-38.2 85.3-85.4 85.3H184.2c-47.2 0-85.4-38.2-85.4-85.3v-119.9h42.7zM491 554.1h42.7v-335.7H491z"  horiz-adv-x="1024" />

    
    <glyph glyph-name="xinxi" unicode="&#59037;" d="M530.066462-127.999634a40.850271 40.850271 0 0 0-28.964561 12.068567l-122.367956 122.879956a40.8137 40.8137 0 0 0 57.673122 57.782836l93.659395-93.988537 93.659395 93.988537a40.703985 40.703985 0 0 0 28.92799 12.068568h322.121028a40.777128 40.777128 0 0 1 40.777128 40.959985V773.120044a41.033128 41.033128 0 0 1-40.777128 40.959985H122.368322a41.179414 41.179414 0 0 1-40.777128-40.959985v-655.359766a40.923414 40.923414 0 0 1 40.777128-40.959985h122.367956a40.777128 40.777128 0 1 0 0-81.554257H122.368322A122.477671 122.477671 0 0 0 0.000366 117.760278V773.120044A122.550813 122.550813 0 0 0 122.368322 896h852.406553A122.550813 122.550813 0 0 0 1097.142831 773.120044v-655.359766a122.477671 122.477671 0 0 0-122.367956-122.514242H669.25727l-110.29939-111.177103a40.447986 40.447986 0 0 0-28.964561-12.068567zM305.700828 404.480176a61.439978 61.439978 0 1 0 61.183978 61.439978 61.513121 61.513121 0 0 0-61.183978-61.439978z m244.772484 0a61.439978 61.439978 0 1 0 61.183978 61.439978 61.513121 61.513121 0 0 0-61.183978-61.439978z m245.028484 0a61.439978 61.439978 0 1 0 61.183978 61.439978 61.513121 61.513121 0 0 0-61.183978-61.439978z"  horiz-adv-x="1097" />

    
    <glyph glyph-name="zuzhi2" unicode="&#58922;" d="M512 896C228.693333 896 0 667.306667 0 384s228.693333-512 512-512 512 228.693333 512 512S795.306667 896 512 896z m0-993.28C245.76-97.28 30.72 117.76 30.72 384S245.76 865.28 512 865.28 993.28 650.24 993.28 384 778.24-97.28 512-97.28z m201.386667 460.8c44.373333 20.48 71.68 68.266667 71.68 122.88 0 81.92-54.613333 157.013333-136.533334 157.013333-6.826667 0-10.24-3.413333-13.653333-10.24-30.72 30.72-75.093333 51.2-122.88 51.2s-92.16-20.48-122.88-54.613333c0 6.826667-6.826667 10.24-13.653333 10.24-81.92 0-136.533333-75.093333-136.533334-157.013333 0-58.026667 27.306667-102.4 71.68-122.88-102.4-27.306667-174.08-119.466667-174.08-228.693334 0-6.826667 6.826667-13.653333 13.653334-13.653333s13.653333 6.826667 13.653333 13.653333c0 119.466667 95.573333 215.04 215.04 215.04 6.826667 0 13.653333 6.826667 13.653333 13.653334s-6.826667 13.653333-13.653333 13.653333c-68.266667 0-102.4 47.786667-102.4 112.64 0 68.266667 34.133333 129.706667 102.4 129.706667-20.48-27.306667-34.133333-61.44-34.133333-102.4 0-68.266667 40.96-129.706667 102.4-153.6C317.44 322.56 204.8 192.853333 204.8 63.146667c0-6.826667 6.826667-13.653333 13.653333-13.653334s13.653333 6.826667 13.653334 13.653334c0 136.533333 143.36 283.306667 283.306666 283.306666s283.306667-143.36 283.306667-283.306666c0-6.826667 6.826667-13.653333 13.653333-13.653334s13.653333 6.826667 13.653334 13.653334c0 129.706667-112.64 259.413333-242.346667 296.96 61.44 27.306667 102.4 85.333333 102.4 153.6 0 37.546667-13.653333 71.68-34.133333 102.4 68.266667 0 102.4-64.853333 102.4-129.706667 0-68.266667-34.133333-112.64-102.4-112.64-6.826667 0-13.653333-6.826667-13.653334-13.653333s6.826667-13.653333 13.653334-13.653334c119.466667 0 215.04-95.573333 215.04-215.04 0-6.826667 6.826667-13.653333 13.653333-13.653333s13.653333 6.826667 13.653333 13.653333c-6.826667 109.226667-78.506667 201.386667-180.906666 232.106667zM648.533333 520.533333c0-78.506667-54.613333-146.773333-136.533333-146.773333-78.506667 0-136.533333 68.266667-136.533333 146.773333s58.026667 139.946667 136.533333 139.946667c81.92 0 136.533333-61.44 136.533333-139.946667z"  horiz-adv-x="1024" />

    
    <glyph glyph-name="xitong1" unicode="&#58900;" d="M767.383589-127.998596c-60.329618 0-109.410794 49.081176-109.410794 109.40939V268.972707c0 28.61606 23.280386 51.89785 51.896446 51.89785h287.564721c60.328214 0 109.40939-49.081176 109.40939-109.40939v-230.051777c0-60.328214-49.081176-109.40939-109.40939-109.40939H767.383589z m-63.130847 109.40939c0-34.811057 28.319789-63.130847 63.130847-63.130847h230.051777c34.809653 0 63.129443 28.319789 63.129443 63.130847V211.461167c0 34.808249-28.319789 63.128039-63.129443 63.128039H704.252742v-293.178412z m-512-109.40939c-60.328214 0-109.40939 49.081176-109.40939 109.40939V211.461167c0 60.328214 49.081176 109.40939 109.40939 109.40939h287.564722c28.61606 0 51.896446-23.28179 51.896446-51.89785V-18.59061c0-60.328214-49.081176-109.40939-109.40939-109.40939H192.252742z m0 402.587802c-34.809653 0-63.129443-28.319789-63.129442-63.128039v-230.051777c0-34.811057 28.319789-63.130847 63.129442-63.130847h230.051778c34.809653 0 63.129443 28.319789 63.129442 63.130847V274.589206h-293.18122zM709.869241 447.129443c-28.61606 0-51.896446 23.280386-51.896446 51.896446V786.59061c0 60.328214 49.081176 109.40939 109.410794 109.40939h230.051777c60.328214 0 109.40939-49.081176 109.40939-109.40939v-230.051777c0-60.328214-49.081176-109.40939-109.40939-109.40939H709.869241z m57.514348 402.59061c-34.811057 0-63.130847-28.319789-63.130847-63.129443v-293.18122h293.18122c34.809653 0 63.129443 28.319789 63.129443 63.129443V786.59061c0 34.809653-28.319789 63.129443-63.129443 63.129443H767.383589zM192.252742 447.129443c-60.328214 0-109.40939 49.081176-109.40939 109.40939V786.59061C82.843352 846.918824 131.924528 896 192.252742 896h230.051778c60.328214 0 109.40939-49.081176 109.40939-109.40939v-287.564721c0-28.61606-23.280386-51.896446-51.896446-51.896446h-287.564722z m0 402.59061c-34.809653 0-63.129443-28.319789-63.129442-63.129443v-230.051777c0-34.809653 28.319789-63.129443 63.129442-63.129443h293.18122V786.59061c0 34.809653-28.319789 63.129443-63.129442 63.129443H192.252742z"  horiz-adv-x="1345" />

    
    <glyph glyph-name="down" unicode="&#58913;" d="M676.8 383.87199999999996a32 32 0 0 0-9.984000000000004-23.231999999999996l-265.6-251.26399999999998a32 32 0 0 0-43.96799999999999 46.528l241.08800000000008 228.03199999999998-241.08799999999997 228.22400000000002a32.064 32.064 0 0 0-1.279999999999994 45.248c12.160000000000004 12.799999999999999 32.448 13.375999999999992 45.248 1.279999999999994l265.5999999999999-251.52a32 32 0 0 0 9.983999999999995-23.296z"  horiz-adv-x="1024" />

    
    <glyph glyph-name="add1" unicode="&#59234;" d="M983.8 583.3C958 644.3 921 699 874 746c-47 47-101.7 84-162.7 109.7C648.2 882.5 581.1 896 512 896S375.8 882.5 312.7 855.7C251.7 830 197 793 150 746c-47-47-84-101.7-109.7-162.7C13.5 520.2 0 453.1 0 384s13.5-136.2 40.3-199.3C66 123.7 103 69 150 22c47-47 101.8-83.9 162.7-109.7 63.1-26.7 130.2-40.3 199.3-40.3s136.2 13.5 199.3 40.3C772.3-62 827-25 874 22c47 47 83.9 101.8 109.7 162.7 26.7 63.1 40.3 130.2 40.3 199.3s-13.5 136.2-40.2 199.3zM692 348H548v-144c0-19.9-16.1-36-36-36s-36 16.1-36 36V348H332c-19.9 0-36 16.1-36 36s16.1 36 36 36h144V564c0 19.9 16.1 36 36 36s36-16.1 36-36v-144h144c19.9 0 36-16.1 36-36s-16.1-36-36-36z"  horiz-adv-x="1024" />

    
    <glyph glyph-name="xitong2" unicode="&#58881;" d="M508.237 520.691c71.835 0 130.293-58.459 130.293-130.293s-58.459-130.293-130.293-130.293-130.293 58.459-130.293 130.293 58.459 130.293 130.293 130.293m0 57.908c-103.946 0-188.202-84.256-188.202-188.202s84.256-188.202 188.202-188.202 188.202 84.256 188.202 188.202-84.256 188.202-188.202 188.202m465.265-303.104c8.275 35.287 12.492 71.623 12.492 108.503 0 36.88-4.217 73.215-12.492 108.503-3.652 15.577-19.241 25.242-34.816 21.588-15.575-3.652-25.242-19.241-21.588-34.816 7.26-30.959 10.961-62.855 10.961-95.276s-3.701-64.317-10.961-95.276c-3.652-15.575 6.013-31.164 21.588-34.816 15.575-3.652 31.164 6.013 34.816 21.588z m-34.225-22.237c1.833 0 3.365-0.028 4.764-0.089 15.983-0.695 29.504 11.699 30.198 27.682 0.695 15.983-11.699 29.504-27.682 30.198a165.37 165.37 0 0 1-7.281 0.143c-15.999 0-28.967-12.97-28.967-28.967 0-15.998 12.969-28.967 28.967-28.967z m-94.58-174.266c-11.826 18.164-18.211 39.327-18.211 61.474 0 62.293 50.498 112.791 112.791 112.791 15.998 0 28.967 12.97 28.967 28.967 0 15.998-12.97 28.967-28.967 28.967-94.29 0-170.726-76.436-170.726-170.726 0-33.461 9.694-65.588 27.594-93.084 8.729-13.407 26.674-17.2 40.081-8.471 13.407 8.729 17.2 26.673 8.471 40.081z m-196.039-148.97c72.081 21.649 137.756 60.26 191.843 112.288 11.53 11.091 11.886 29.429 0.795 40.959s-29.429 11.886-40.959 0.795c-47.493-45.685-105.126-79.568-168.345-98.556-15.323-4.602-24.013-20.754-19.411-36.076s20.754-24.013 36.076-19.411z m-238.741 15.412c18.462 39.237 57.954 64.813 102.084 64.813 44.138 0 83.654-25.583 102.113-64.813 6.811-14.476 24.068-20.69 38.544-13.878 14.476 6.812 20.69 24.068 13.878 38.544-27.927 59.356-87.747 98.083-154.535 98.083-66.784 0-126.577-38.722-154.507-98.083-6.811-14.476-0.597-31.733 13.878-38.544 14.476-6.811 31.733-0.597 38.544 13.878zM184.8 41.072c53.855-51.39 119.056-89.549 190.565-111.047 15.321-4.606 31.475 4.08 36.081 19.401 4.606 15.321-4.08 31.475-19.401 36.081-62.731 18.859-119.955 52.351-167.249 97.479-11.574 11.044-29.91 10.615-40.956-0.959s-10.615-29.91 0.959-40.956zM86.694 253.258c62.293 0 112.791-50.498 112.791-112.791 0-22.531-6.606-44.044-18.81-62.397-8.859-13.323-5.239-31.303 8.082-40.161 13.323-8.859 31.303-5.241 40.161 8.082 18.475 27.783 28.501 60.438 28.501 94.477 0 94.29-76.436 170.726-170.726 170.726-15.999 0-28.967-12.97-28.967-28.967 0-15.998 12.97-28.967 28.967-28.967z m-6.372-0.159c1.953 0.108 4.063 0.159 6.373 0.159 15.999 0 28.967 12.97 28.967 28.967 0 15.998-12.97 28.967-28.967 28.967-3.321 0-6.478-0.078-9.552-0.246-15.974-0.878-28.212-14.539-27.334-30.513 0.878-15.974 14.539-28.212 30.513-27.334zM50.528 492.583c-8.288-35.374-12.519-71.734-12.519-108.585s4.23-73.211 12.519-108.585c3.65-15.577 19.235-25.245 34.812-21.596 15.577 3.65 25.245 19.236 21.596 34.812-7.277 31.056-10.992 62.982-10.992 95.367 0 32.385 3.715 64.311 10.992 95.367 3.65 15.577-6.019 31.163-21.596 34.812-15.577 3.65-31.163-6.019-34.812-21.596z m36.166 22.157c-2.31 0-4.42 0.052-6.373 0.159-15.974 0.878-29.635-11.361-30.513-27.334-0.878-15.974 11.361-29.635 27.334-30.513 3.073-0.169 6.231-0.246 9.552-0.246 15.999 0 28.967 12.97 28.967 28.967 0 15.998-12.97 28.967-28.967 28.967z m93.982 175.189c12.205-18.355 18.81-39.869 18.81-62.426 0-62.286-50.491-112.763-112.791-112.763-15.999 0-28.967-12.97-28.967-28.967 0-15.999 12.97-28.967 28.967-28.967 94.294 0 170.726 76.412 170.726 170.698 0 34.062-10.025 66.719-28.501 94.506-8.859 13.323-26.839 16.941-40.161 8.082s-16.941-26.839-8.082-40.161zM375.365 837.973c-71.509-21.499-136.71-59.658-190.565-111.047-11.574-11.044-12.004-29.381-0.959-40.956 11.044-11.574 29.381-12.004 40.956-0.959 47.294 45.13 104.519 78.621 167.249 97.479 15.321 4.606 24.007 20.761 19.401 36.081-4.606 15.321-20.761 24.007-36.081 19.401z m238.749-15.409c-18.457-39.227-57.972-64.813-102.084-64.813-44.156 0-83.65 25.572-102.113 64.813-6.811 14.476-24.068 20.69-38.544 13.878-14.476-6.811-20.69-24.068-13.878-38.544 27.932-59.364 87.728-98.083 154.535-98.083 66.764 0 126.581 38.732 154.507 98.083 6.811 14.476 0.597 31.733-13.878 38.544-14.476 6.812-31.733 0.597-38.544-13.878z m226.382-96.871c-54.085 51.995-119.755 90.603-191.827 112.279-15.321 4.608-31.475-4.077-36.083-19.397s4.077-31.475 19.397-36.083c63.225-19.015 120.864-52.902 168.362-98.564 11.533-11.088 29.871-10.726 40.959 0.807s10.726 29.871-0.807 40.959z m98.781-210.953c-62.301 0-112.791 50.477-112.791 112.763 0 22.173 6.384 43.335 18.211 61.503 8.729 13.407 4.935 31.353-8.471 40.081-13.407 8.729-31.353 4.935-40.081-8.471-17.903-27.499-27.594-59.627-27.594-93.113 0-94.287 76.433-170.698 170.726-170.698 15.998 0 28.967 12.97 28.967 28.967 0 15.999-12.97 28.967-28.967 28.967z m4.764 0.089a109 109 0 0 0-4.764-0.089c-15.999 0-28.967-12.97-28.967-28.967 0-15.999 12.97-28.967 28.967-28.967 2.615 0 4.963 0.043 7.281 0.143 15.983 0.695 28.378 14.215 27.682 30.198-0.694 15.984-14.215 28.378-30.198 27.682z"  horiz-adv-x="1024" />

    
    <glyph glyph-name="fanhui" unicode="&#58916;" d="M710.153924 887.019603L266.007127 435.307476a81.118646 81.118646 0 0 1 0.861532-114.476097l446.192936-441.050666a26.922883 26.922883 0 0 1 37.853573 38.284339L304.722232 359.115718a27.27288 27.27288 0 0 0-0.323074 38.445877L748.545955 849.273722A26.922883 26.922883 0 1 1 710.180847 886.99268z"  horiz-adv-x="1024" />

    
    <glyph glyph-name="tuichu2" unicode="&#58930;" d="M895.7 398.1L713.2 656.3c-7.7 7.7-20.2 7.7-27.9 0-7.7-7.7-7.7-20.2 0-27.9L840 398.1H397.9c-10.9 0-19.7-8.8-19.7-19.7s8.8-19.7 19.7-19.7H840L692.1 142c-7.7-7.7-7.7-20.2 0-27.9 7.7-7.7 20.2-7.7 27.9 0l175.8 244.6-0.1 39.4zM619.3-12.6H247c-43.5 0-78.8 35.7-78.8 79.8V703.3c0 44.1 35.3 79.8 78.8 79.8h372.3c10.9 0 19.7 8.9 19.7 20s-8.8 20-19.7 20H247c-65.3 0-118.2-53.6-118.2-119.7v-636.1c0-66.1 52.9-119.7 118.2-119.7h372.3c10.9 0 19.7 8.9 19.7 20 0 10.8-8.8 19.8-19.7 19.8z"  horiz-adv-x="1024" />

    
    <glyph glyph-name="arrow-left" unicode="&#58914;" d="M597.3333336666667 597.333333L383.9999996666668 384.00000000000006 597.3333336666666 170.66666699999996Z"  horiz-adv-x="1024" />

    
    <glyph glyph-name="arrow-right" unicode="&#58923;" d="M405.333333 170.66666699999996L618.666667 384 405.3333330000001 597.333333Z"  horiz-adv-x="1024" />

    
    <glyph glyph-name="small-arrow-up" unicode="&#58924;" d="M512.128 548.8c0.003 0 0.006 0 0.008 0 9.137 0 17.379-3.829 23.21-9.97l251.277-265.614c5.415-5.72 8.743-13.464 8.744-21.984 0-17.678-14.33-32.008-32.008-32.008-9.157 0-17.416 3.845-23.25 10.009l-228.045 241.103-228.224-241.088c-5.855-6.165-14.113-10.001-23.266-10.001-8.516 0-16.256 3.32-21.998 8.736-12.784 12.145-13.36 32.434-1.264 45.233l251.52 265.6c5.844 6.155 14.086 9.984 23.223 9.984 0.025 0 0.051 0 0.076 0z"  horiz-adv-x="1024" />

    
    <glyph glyph-name="right" unicode="&#58925;" d="M511.87199999999996 219.20000000000005a32 32 0 0 0-23.232000000000006 9.983999999999988l-251.264 265.6a32 32 0 0 0 46.527999999999956 43.96800000000002l228.03200000000024-241.08799999999982 228.22399999999982 241.08800000000016a32.064 32.064 0 0 0 45.248 1.2800000000000367c12.80000000000001-12.159999999999993 13.376000000000012-32.44799999999998 1.2800000000000367-45.248l-251.51999999999998-265.5999999999999a32 32 0 0 0-23.296-9.98400000000002z"  horiz-adv-x="1024" />

    
    <glyph glyph-name="xinxi1" unicode="&#59126;" d="M512 865.28C246.784 865.28 30.72 675.328 30.72 441.344c0-111.104 48.64-216.064 136.192-295.424 10.24-9.216 14.848-24.064 12.288-38.4l-31.744-153.088c-4.096-15.872 1.024-32.256 13.824-42.496 7.68-6.656 17.408-9.728 27.136-9.728 6.144 0 12.288 1.536 17.92 4.096 0.512 0 0.512 0.512 1.024 0.512l209.408 111.104c7.68 4.096 15.872 5.632 24.576 4.608 23.552-3.072 47.616-4.608 71.68-4.608 265.216 0 481.28 189.952 481.28 423.936C993.28 675.328 777.216 865.28 512 865.28z m0-806.4c-22.016 0-44.032 1.536-66.048 4.608-16.896 2.048-34.304-1.024-49.152-8.704L188.416-56.32c-0.512 0-0.512 0-1.024 0.512s-0.512 0.512-0.512 1.024 0 0.512 0.512 1.024l31.744 153.6c6.144 28.16-3.584 57.856-24.576 76.8-79.36 71.68-122.88 165.888-122.88 265.216C71.68 652.8 269.312 824.32 512 824.32s440.32-171.52 440.32-382.976c0-210.944-197.632-382.464-440.32-382.464zM307.2 435.2m-40.96 0a40.96 40.96 0 1 1 81.92 0 40.96 40.96 0 1 1-81.92 0ZM716.8 435.2m-40.96 0a40.96 40.96 0 1 1 81.92 0 40.96 40.96 0 1 1-81.92 0ZM512 435.2m-40.96 0a40.96 40.96 0 1 1 81.92 0 40.96 40.96 0 1 1-81.92 0Z"  horiz-adv-x="1024" />

    
    <glyph glyph-name="arrow-up-2" unicode="&#59048;" d="M682.667 298.66700001000004L512 469.333l-170.667-170.66599999z"  horiz-adv-x="1024" />

    
    <glyph glyph-name="bumen4" unicode="&#58959;" d="M679.287462 144.111888h189.250749c15.344655 1.022977 27.62038 13.298701 27.62038 28.643357 0 15.344655-12.275724 27.62038-27.62038 28.643356H679.287462c-16.367632 0-28.643357-13.298701-28.643356-28.643356 0-15.344655 12.275724-28.643357 28.643356-28.643357zM679.287462 302.673327h189.250749c15.344655 1.022977 27.62038 13.298701 27.62038 28.643356s-12.275724 27.62038-27.62038 28.643357H679.287462c-16.367632 0-28.643357-13.298701-28.643356-28.643357 0-15.344655 12.275724-28.643357 28.643356-28.643356zM679.287462 461.234765h189.250749c15.344655 1.022977 27.62038 13.298701 27.62038 28.643357s-12.275724 27.62038-27.62038 28.643357H679.287462c-16.367632 0-28.643357-13.298701-28.643356-28.643357s12.275724-28.643357 28.643356-28.643357zM406.152597 476.579421H195.41933c-16.367632 0-28.643357-13.298701-28.643356-28.643357 0-16.367632 13.298701-28.643357 28.643356-28.643357h210.733267c15.344655 1.022977 27.62038 13.298701 27.62038 28.643357 0 15.344655-12.275724 27.62038-27.62038 28.643357zM406.152597 666.853147H195.41933c-16.367632 0-28.643357-13.298701-28.643356-28.643357 0-16.367632 13.298701-28.643357 28.643356-28.643356h210.733267c16.367632 0 28.643357 13.298701 28.643357 28.643356 0 15.344655-13.298701 28.643357-28.643357 28.643357zM910.480269 674.013986H600.518231V785.518482C600.518231 845.874126 551.415334 896 490.036713 896h-378.501499C81.868881 896 54.248501 883.724276 32.765984 863.264735 12.306443 842.805195 0.030719 814.161838 1.053696 785.518482v-885.898102c0-14.321678 11.252747-26.597403 26.597403-26.597403H573.920829c14.321678 0 25.574426 11.252747 25.574425 26.597403V621.842158h310.985015c31.712288 0 58.30969-26.597403 58.309691-58.30969v-638.337663H670.080669c-14.321678 0-26.597403-11.252747-26.597403-26.597402 0-12.275724 9.206793-23.528472 21.482518-25.574426v-1.022977h330.421578c14.321678 0 25.574426 11.252747 26.597403 26.597403v664.935065c-1.022977 61.378621-50.125874 110.481518-111.504496 110.481518zM379.555195-74.805195H222.016733V173.778222c0 9.206793 7.160839 16.367632 16.367632 16.367632h125.826174c9.206793 0 16.367632-7.160839 16.367633-16.367632v-248.583417z m168.791208 0H431.727023V173.778222c0 37.85015-30.689311 68.539461-68.539461 68.53946H237.361388c-37.85015 0-68.539461-30.689311-68.53946-68.53946v-248.583417H53.225524V785.518482c0 31.712288 26.597403 58.30969 58.30969 58.30969h378.501499c31.712288 0 58.30969-26.597403 58.30969-58.30969v-860.323677z"  horiz-adv-x="1024" />

    
    <glyph glyph-name="xitong3" unicode="&#58889;" d="M1016.864859 509.322864a45.465629 45.465629 0 0 0-16.885145-13.815119 130.841602 130.841602 0 0 1-58.111214-42.176315 107.450924 107.450924 0 0 1-24.048541-68.856307c0-24.852595 6.651724-46.854451 20.247555-65.493897 13.522735-18.712542 31.211935-32.01599 53.213792-40.202726 5.116711-2.850739 9.502463-5.920765 13.08416-8.698409a44.296095 44.296095 0 0 0 16.885145-24.852594c1.535013-8.698408 1.023342-19.443501-1.023342-31.942894a180.108216 180.108216 0 0 0-11.037476-37.863659 160.810907 160.810907 0 0 0-18.639446-34.574345 68.710115 68.710115 0 0 0-24.04854-22.001856 53.213791 53.213791 0 0 0-23.098294-6.651724 69.075594 69.075594 0 0 0-22.001856 4.312656 242.678278 242.678278 0 0 1-27.337854 6.140053 119.877222 119.877222 0 0 1-33.551003 1.023342 161.103291 161.103291 0 0 1-33.989578-7.163395 67.90606 67.90606 0 0 1-29.238347-18.639446 107.670212 107.670212 0 0 1-30.700264-62.716254 122.801056 122.801056 0 0 1 10.014133-67.02891c7.382683-14.619173 6.140053-29.457634-3.362409-44.003712a75.727318 75.727318 0 0 0-20.978514-18.200871 229.74031 229.74031 0 0 0-31.211935-17.104433 190.049254 190.049254 0 0 0-35.524592-12.060818c-12.353202-2.777643-23.609965-4.385752-33.039332-4.385752a28.068813 28.068813 0 0 0-18.712542 7.675066 41.883932 41.883932 0 0 0-11.987722 16.44657H620.758356a135.958313 135.958313 0 0 1-41.226069 58.842173 101.968734 101.968734 0 0 1-67.540581 24.779499c-24.852595 0-47.366122-8.186737-67.540581-24.779499-20.247555-16.373474-34.355057-35.816975-42.249411-57.81883a38.229138 38.229138 0 0 0-16.373474-19.224213 48.828039 48.828039 0 0 0-24.048541-6.140053c-10.233421 0-21.782568 1.827397-34.574345 5.409094a278.349061 278.349061 0 0 0-38.37533 13.815119 183.909201 183.909201 0 0 0-34.574345 19.151117c-10.233421 7.455778-17.908487 14.619173-23.025198 22.001856a35.816975 35.816975 0 0 0-6.140053 18.200871c-0.219288 6.871011 2.339068 16.592762 8.186737 29.165251 7.967449 16.885145 11.256764 36.036262 9.21008 57.81883a100.360625 100.360625 0 0 1-27.849526 59.865515 71.487758 71.487758 0 0 1-37.351988 21.490185 149.407952 149.407952 0 0 1-41.73774 3.874081c-15.350132-0.804055-31.211935-3.581697-47.073738-8.698408a43.85752 43.85752 0 0 0-30.700264 2.265972c-7.967449 2.850739-15.642516 9.72175-22.513527 20.247555a247.502605 247.502605 0 0 0-18.712542 35.01292 213.659219 213.659219 0 0 0-12.499393 39.691056 98.240845 98.240845 0 0 0-2.339068 33.551003c2.339068 16.081091 9.429367 26.314512 22.001856 30.700264 22.001856 8.698408 41.73774 23.317582 59.353844 43.492041 17.6892 20.247555 26.387608 42.761082 26.387608 67.540581 0 25.656649-8.698408 48.09708-26.387608 67.102006a166.07381 166.07381 0 0 1-59.865515 42.176315 29.89621 29.89621 0 0 0-16.373474 15.861803A57.014776 57.014776 0 0 0 0.174446 537.757156c0 9.429367 1.535013 20.247555 4.385752 31.942894a188.587337 188.587337 0 0 0 11.476051 34.062674c4.824327 11.037476 10.233421 20.978514 16.373474 30.188593a66.517239 66.517239 0 0 0 20.247555 20.247555 25.144978 25.144978 0 0 0 16.885145 4.312656c5.335998-0.730959 11.476051-2.265972 18.127775-4.312656 22.001856-8.698408 44.807766-11.549147 68.63702-8.186737 23.756157 3.289314 44.734671 13.815119 63.154829 31.211935 8.698408 8.698408 15.130844 19.662788 19.224213 32.527661 4.093369 12.791777 6.651724 25.583553 7.675066 37.863659a188.148762 188.148762 0 0 1 0 33.989578 290.0444 290.0444 0 0 1-2.850739 22.001856 98.094653 98.094653 0 0 0-3.800985 15.350132 25.510458 25.510458 0 0 0 1.535013 15.423228 62.570062 62.570062 0 0 0 23.536869 26.826183c11.256764 7.675066 23.536869 14.107502 36.840317 19.224213 13.08416 5.116711 26.095224 8.917696 38.37533 11.476051 12.572489 2.558355 22.294239 3.874081 29.676922 3.874081 9.502463 0 16.885145-3.070026 22.513527-9.502462a58.111214 58.111214 0 0 0 11.549147-19.151117c7.894354-19.735884 21.270897-37.1327 39.398672-52.263545 18.200871-15.057749 39.910343-22.513527 64.762938-22.513527 25.583553 0 48.316368 7.163395 68.052253 21.490185a114.760511 114.760511 0 0 1 41.73774 54.529516 62.78935 62.78935 0 0 0 13.815118 18.200871C637.643501 892.710686 644.002842 896 650.654566 896c10.233421 0 21.490185-1.535013 33.551003-4.312656 12.060818-2.850739 24.04854-6.944107 35.597687-12.060818 11.768435-5.116711 22.513527-11.768435 32.454565-19.662788 10.014134-7.967449 17.6892-16.885145 23.536869-26.387608a25.29117 25.29117 0 0 0 3.36241-19.224213 67.832965 67.832965 0 0 0-4.385752-14.838461c-9.429367-21.197801-12.499393-43.492041-8.698408-67.02891 3.581697-23.536869 14.32679-44.003712 31.723606-61.692912 17.6892-17.616104 39.179385-27.337854 64.762938-29.165251 25.583553-1.754301 49.412806 2.339068 71.414662 12.572489a34.062674 34.062674 0 0 0 21.490185 4.312656c8.406025-0.730959 15.642516-4.093369 21.490185-9.941038 11.037476-10.233421 20.759226-25.875937 29.165251-46.85445 8.479121-20.978514 14.107502-41.957028 16.885145-63.227925 1.535013-12.499393-0.511671-22.221144-6.140053-29.165251z m-285.585552-30.188593a239.827539 239.827539 0 0 1-50.947819 75.727318 241.654936 241.654936 0 0 1-76.23899 51.240203 234.783925 234.783925 0 0 1-93.416518 18.639446c-32.966236 0-63.958884-6.140053-92.612463-18.639446a238.292526 238.292526 0 0 1-75.727318-51.240203 237.415376 237.415376 0 0 1-69.660361-168.632165c0-32.966236 6.140053-63.958884 18.712542-92.904847 12.572489-28.872867 29.457634-54.456421 50.947819-76.458277a234.710829 234.710829 0 0 1 168.339781-70.39132c33.039332 0 64.031979 6.140053 93.416518 18.712542a234.637733 234.637733 0 0 1 76.23899 51.678778 242.678278 242.678278 0 0 1 50.947819 76.458277c12.572489 28.945963 18.712542 59.938611 18.712542 92.904847 0 33.039332-6.140053 64.031979-18.712542 92.904847z"  horiz-adv-x="1024" />

    
    <glyph glyph-name="xiazai1" unicode="&#58902;" d="M554.929231 896v-768h-85.858462V896zM92.002462 547.84l416.531692-337.368615 423.069538 344.221538 53.011693-51.830154-449.457231-365.725538a42.850462 42.850462 0 0 0-52.775385 0L39.384615 495.852308l52.617847 51.830154zM117.602462 199.758769v-241.033846h788.795076V213.307077H984.615385v-297.826462c0-23.945846-17.329231-43.480615-38.99077-43.480615H78.375385C56.950154-128 39.384615-108.465231 39.384615-84.519385v284.356923h78.217847z"  horiz-adv-x="1024" />

    
    <glyph glyph-name="yinzhang" unicode="&#58882;" d="M800.426667-39.936H232.448a19.456 19.456 0 0 0-19.456 19.456v115.370667a19.456 19.456 0 0 0 38.912 0v-95.573334h529.066667v95.573334a19.456 19.456 0 0 0 38.912 0v-115.029334a19.456 19.456 0 0 0-19.456-19.797333zM440.661333 516.778667a19.456 19.456 0 0 0-15.701333 7.850666 115.712 115.712 0 0 0 68.266667 181.930667 19.456 19.456 0 1 0 7.850666-38.229333 76.8 76.8 0 0 1-45.056-120.490667 19.456 19.456 0 0 0-15.701333-31.061333zM838.314667 76.8H194.56a19.456 19.456 0 0 0-19.456 19.456v55.978667a57.685333 57.685333 0 0 0 57.344 57.685333c78.165333 0 207.530667 64.853333 207.530667 133.802667v19.114666c0 32.085333 0 36.522667-46.421334 83.626667a193.877333 193.877333 0 0 0-11.605333 282.624 188.416 188.416 0 0 0 268.629333 0 193.877333 193.877333 0 0 0-11.605333-282.282667c-46.08-46.762667-46.08-51.2-46.08-78.165333v-24.917333c0-68.266667 129.706667-133.802667 207.872-133.802667a57.685333 57.685333 0 0 0 57.344-57.685333v-57.685334a19.456 19.456 0 0 0-19.797333-17.749333zM214.016 114.346667H819.2v37.888a18.773333 18.773333 0 0 1-18.432 18.773333 329.386667 329.386667 0 0 0-154.965333 47.786667c-59.050667 34.133333-91.818667 79.872-91.818667 125.269333v24.234667c0 41.642667 7.168 54.272 58.026667 106.154666a153.941333 153.941333 0 0 1 54.272 117.418667 150.869333 150.869333 0 1 1-301.738667 0 153.941333 153.941333 0 0 1 54.272-117.418667A268.970667 268.970667 0 0 0 469.674667 418.133333a106.154667 106.154667 0 0 0 8.192-54.954666v-19.114667c0-45.397333-34.133333-89.770667-91.818667-125.269333a329.386667 329.386667 0 0 0-154.965333-47.786667 18.773333 18.773333 0 0 1-18.432-18.773333v-37.888z"  horiz-adv-x="1024" />

    
    <glyph glyph-name="wenjian" unicode="&#58921;" d="M1042.432-54.345143c0-19.529143-7.753143-38.326857-21.430857-52.077714a72.777143 72.777143 0 0 0-51.712-21.577143H54.857143L182.857143 480.256c0 40.667429 32.621714 73.728 72.996571 73.728h841.362286c40.374857 0 73.069714-33.060571 73.069714-73.728l-127.853714-534.601143zM201.142857 609.28h823.003429v72.411429c0 40.667429-32.768 73.728-73.142857 73.728h-438.857143v66.852571c0 40.740571-32.768 73.728-73.142857 73.728H73.142857C32.768 896 0 863.012571 0 822.272v-876.617143l128 589.897143c0 19.529143 7.68 38.326857 21.357714 52.150857a72.850286 72.850286 0 0 0 51.785143 21.577143z"  horiz-adv-x="1170" />

    
    <glyph glyph-name="mima1" unicode="&#58931;" d="M522.437 334.966c-46.67 0-84.677-37.81-84.677-84.677 0-33.674 19.89-62.424 48.246-76.012v-92.948c0-20.086 16.345-36.234 36.234-36.234 20.086 0 36.234 16.345 36.234 36.234v92.948c28.554 13.588 48.246 42.338 48.246 76.012 0.197 46.868-37.612 84.677-84.283 84.677z m350.326 169.157H147.89c-39.975 0-72.467-32.492-72.467-72.468v-483.249c0-39.975 32.492-72.468 72.467-72.468h724.874c39.975 0 72.468 32.493 72.468 72.468v483.25c0 40.172-32.493 72.467-72.468 72.467z m0-507.274c0-39.975-8.27-48.246-48.246-48.246H196.332c-39.975 0-48.246 8.27-48.246 48.246V383.41c0 39.976 8.27 48.246 48.246 48.246h628.185c39.975 0 48.246-8.27 48.246-48.246v-386.56zM167.778 540.554c20.087 0 36.431 15.95 37.022 36.037C237.49 715.028 361.748 818.215 510.228 818.215c115.987 0 217.009-63.212 271.36-156.75 5.71-12.8 18.51-21.662 33.28-21.662 20.086 0 36.43 16.345 36.43 36.43 0 7.878-2.56 15.164-6.695 21.072C777.846 812.702 653.391 890.88 510.228 890.88c-187.077 0-342.646-128.394-378.683-304.64-0.197-0.788-0.394-1.378-0.394-2.166-0.197-0.788-0.394-1.772-0.591-2.56h0.197c-0.197-1.182-0.197-2.363-0.197-3.545 0.197-20.677 16.738-37.415 37.218-37.415z"  horiz-adv-x="1024" />

    
    <glyph glyph-name="xiugaimima2" unicode="&#59995;" d="M865.405447-86.720851c-2.503007 0-4.800329 0.412392-7.215332 1.295505l-1.413186 0.515747H109.54544l-1.428535-0.52291a20.85805 20.85805 0 0 0-7.199983-1.288342c-11.529591 0-20.893866 9.379625-20.893866 20.909215V415.697933c0 11.529591 9.365298 20.916379 20.893866 20.916378h90.968851V587.762777c0 147.202597 119.741151 266.958074 266.942725 266.958074h43.76169c147.202597 0 266.942725-119.755478 266.942725-266.958074v-18.781762l0.103354-2.245134c0-11.529591-9.365298-20.909216-20.893866-20.909215-10.999518 0-20.143783 8.577353-20.835538 19.517519l-0.073678 1.391696v20.923542c0 124.136252-100.996229 225.125317-225.139643 225.125317h-43.76169c-124.202767 0-225.242997-100.989065-225.242997-225.125317v-151.155629h335.722204c11.529591 0 20.909216-9.379625 20.909216-20.909215 0-11.536754-9.379625-20.916379-20.909216-20.916379H121.826138v-437.977099h722.670094V236.057553c0 11.529591 9.379625 20.909216 20.909215 20.909216 11.455913 0 20.835538-9.365298 20.909216-20.865214v-301.914214c0-11.528568-9.379625-20.908192-20.909216-20.908192zM512.515235 99.943502c-5.609765 0-10.852162 2.149966-14.754029 6.058996-3.917216 3.90903-6.066159 9.151427-6.066159 14.768355 0 5.617951 2.149966 10.859325 6.051833 14.768355l410.626171 410.529981c3.917216 3.90903 9.15859 6.058996 14.783705 6.058996 5.609765 0 10.852162-2.149966 14.754028-6.058996 3.917216-3.90903 6.066159-9.137101 6.06616-14.710027-0.014326-5.602601-2.208295-10.866489-6.155187-14.827706l-410.537144-410.529981c-3.90289-3.908006-9.145287-6.057973-14.769378-6.057973z"  horiz-adv-x="1024" />

    
    <glyph glyph-name="xitong4" unicode="&#58903;" d="M560.664 295.232c-20.954 11.333-41.294 22.326-61.624 33.334-46.86 25.376-93.747 50.699-140.516 76.238-4.21 2.299-6.677 1.945-10.438-1.089-47.301-38.16-100.39-48.255-157.202-27.24-56.615 20.94-91.04 63.108-101.528 122.52-15.583 88.275 44.44 171.212 133.195 184.346 54.286 8.032 101.076-8.911 139.233-48.548 3.866-4.016 6.62-4.829 11.816-2.62 79.86 33.964 159.793 67.76 239.817 101.337 5.44 2.282 6.458 5.074 5.975 10.46-5.543 61.833 33.084 116.532 92.823 131.782 69.902 17.843 141.214-29.403 152.01-100.71 10.697-70.655-37.94-135.196-108.535-142.772-39.242-4.21-73.341 8.218-101.355 36.261-3.214 3.218-5.527 3.766-9.741 1.977a80700.153 80700.153 0 0 0-237.466-100.367c-4.53-1.907-6.268-3.555-5.228-9.189 5.643-30.557 4.149-60.914-4.867-90.716-1.338-4.428-0.393-6.282 3.517-8.39a55043.232 55043.232 0 0 0 192.112-104.002c4.02-2.187 6.113-1.49 9.106 1.63 31.374 32.749 69.48 53.547 114.508 58.58 79.45 8.876 143.861-19.532 188.11-86.138 76.063-114.495 12.908-267.642-121.33-297.737-103.906-23.294-210.069 45.73-231.252 150.218-7.263 35.83-5.007 70.928 7.06 105.419 0.55 1.572 1.052 3.163 1.8 5.416z m181.348-194.905c68.144-0.315 124.454 55.93 124.604 124.465 0.15 68.275-56.073 124.78-124.289 124.906-67.714 0.128-124.052-55.707-124.433-123.32-0.392-69.615 54.862-125.728 124.118-126.05zM335 525.327c0.17 49.136-39.897 89.53-88.84 89.564-48.536 0.035-88.535-39.668-88.81-88.147-0.28-49.839 39.344-90.156 88.663-90.21 48.639-0.053 88.819 40.037 88.987 88.792z m460.548 230.05c0.022 29.534-23.783 53.526-53.292 53.714-29.19 0.183-53.405-24.07-53.47-53.55-0.063-29.43 24.145-53.823 53.307-53.712 29.525 0.11 53.432 24.062 53.455 53.548z"  horiz-adv-x="1024" />

    
    <glyph glyph-name="xiazai2" unicode="&#58918;" d="M1022.464 148.48c0-16.896-3.072-32.768-8.704-48.128-5.632-14.848-13.824-28.672-24.064-40.96-10.24-12.288-22.016-22.016-36.352-30.208-13.824-7.68-29.184-13.312-45.568-15.872v-2.048H224.256c-1.536 0-2.048 0-2.56-0.512-0.512-0.512-1.024-0.512-2.56-0.512s-2.56 0-3.072 0.512c-0.512 0.512-1.536 0.512-3.072 0.512h-6.144v1.024c-28.672 1.536-55.296 7.68-79.872 19.456-24.576 11.776-46.592 27.136-64.512 46.592s-32.768 41.984-43.52 67.072c-10.752 25.6-15.872 52.736-15.872 80.896 0 28.672 5.12 55.296 15.872 80.384 10.752 25.088 24.576 47.104 43.008 66.048s38.912 34.816 62.976 47.104c24.064 12.288 50.176 19.456 77.824 21.504 5.12 45.056 17.408 86.016 36.864 124.416s45.056 71.68 75.776 100.352 66.56 51.2 106.496 67.072c39.936 16.384 82.944 24.576 128.512 24.576 48.128 0 93.696-9.216 136.704-27.648s79.872-43.52 111.616-75.264 56.32-69.12 74.752-111.616c18.432-42.496 27.648-87.552 27.648-136.192 0-21.504-2.048-43.008-6.144-63.488-4.096-20.48-9.728-40.448-17.408-59.392 1.536 0 3.072 0 4.608 0.512 1.536 0.512 3.072 0.512 4.608 0.512 18.944 0 36.864-3.584 52.736-10.752s30.72-16.896 43.008-29.184c12.288-12.288 22.016-26.624 29.184-43.52 7.168-16.384 10.752-34.304 10.752-53.248z m-335.36 151.04c8.192 13.824 10.752 21.504 7.168 23.552-3.584 2.048-11.776 3.072-25.6 3.072-8.192 0-19.456 0-34.304 0.512-14.848 0.512-25.6 0.512-33.28 0.512-10.752 0-17.92 4.608-20.992 13.312s-4.608 20.992-4.608 36.864c0 21.504 0 39.424-0.512 52.224-0.512 13.312-0.512 27.648-0.512 43.52 0 17.408-1.024 30.72-3.584 38.912-2.56 8.192-12.288 12.288-29.184 12.288-12.288 0-21.504 0-27.648-0.512-6.144-0.512-14.848-0.512-25.6-0.512-18.432 0-29.696-5.12-34.304-15.872-4.608-10.752-6.656-20.992-6.656-31.232v-32.768c0-8.704 0-17.408 0.512-25.6s0.512-16.896 0.512-25.6v-29.696c0-10.752-1.536-18.944-4.096-25.088s-9.216-8.704-19.456-8.704c-4.096-0.512-9.728-1.024-16.896-1.536-7.168-0.512-14.336-0.512-22.016-1.024s-14.848-0.512-21.504-0.512H348.16c-14.336 0-22.528-4.608-25.6-13.312-2.56-8.704 1.536-19.968 13.312-33.792 11.776-14.336 24.064-29.696 37.376-46.592 13.312-16.896 26.112-33.28 39.424-50.688 12.8-16.896 25.088-33.28 37.376-49.664 11.776-15.872 23.04-29.696 33.28-41.472 18.432-20.48 35.84-19.968 52.736 1.024 10.24 11.776 22.016 26.624 35.84 45.056 13.824 18.432 27.648 37.376 41.984 57.344 14.336 19.968 27.648 39.424 40.96 57.856s24.064 35.84 32.256 48.128z"  horiz-adv-x="1024" />

    
    </font>
</defs>
</svg>
